<?xml version="1.0" standalone="no"?>
<!DOCTYPE svg PUBLIC "-//W3C//DTD SVG 20010904//EN"
 "http://www.w3.org/TR/2001/REC-SVG-20010904/DTD/svg10.dtd">
<svg version="1.0" xmlns="http://www.w3.org/2000/svg"
 width="4000.000000pt" height="4000.000000pt" viewBox="0 0 4000.000000 4000.000000"
 preserveAspectRatio="xMidYMid meet">

<g transform="translate(0.000000,4000.000000) scale(0.100000,-0.100000)"
fill="#000000" stroke="none">
<path d="M28700 37090 c-107 -4 -206 -10 -219 -15 -19 -7 -22 -5 -16 6 7 12 6
12 -7 1 -11 -9 -18 -10 -23 -2 -3 5 -25 9 -48 8 l-42 -1 45 -7 c25 -4 41 -8
35 -10 -21 -7 -205 -5 -205 2 0 10 -33 -3 -42 -16 -5 -7 -8 -7 -8 2 0 6 -5 12
-11 12 -5 0 -7 -4 -4 -10 3 -5 3 -10 -2 -11 -4 0 -53 -2 -108 -3 -55 -2 -100
-4 -100 -5 0 -2 -215 -11 -267 -12 -10 0 -18 -4 -18 -8 0 -4 -12 -13 -26 -19
-14 -7 -23 -8 -19 -2 7 11 5 11 -78 13 -33 1 -61 -1 -64 -5 -2 -5 -15 -8 -29
-8 -14 0 -23 -4 -20 -8 3 -5 -1 -9 -9 -9 -8 0 -15 5 -15 11 0 6 -5 4 -10 -4
-7 -11 -10 -11 -10 -2 0 7 -4 10 -10 7 -5 -3 -10 0 -10 7 0 9 -3 9 -8 2 -4 -6
-20 -15 -37 -19 -37 -10 -36 -10 -57 -19 -9 -4 -22 -5 -27 -1 -6 3 -8 0 -5 -8
4 -10 -3 -13 -25 -12 -21 1 -28 -2 -23 -10 4 -6 0 -3 -10 7 -20 22 -32 23 -25
3 5 -11 -2 -10 -28 5 -31 17 -33 17 -28 2 4 -9 11 -20 17 -25 15 -10 -26 -4
-43 7 -11 7 -13 4 -8 -15 6 -22 5 -23 -8 -5 -11 15 -21 17 -49 12 -25 -5 -36
-3 -36 5 0 8 -4 9 -13 0 -10 -8 -17 -7 -26 2 -9 8 -7 -1 3 -27 9 -22 14 -41
12 -43 -2 -3 -7 5 -11 16 -4 12 -15 21 -26 21 -11 0 -18 4 -15 8 2 4 -4 9 -15
9 -10 1 -19 -3 -19 -8 0 -6 4 -8 9 -4 16 10 21 -12 6 -25 -8 -7 -12 -16 -9
-21 3 -5 0 -9 -5 -9 -6 0 -11 5 -11 12 0 15 -13 1 -16 -17 -2 -16 23 -28 31
-15 10 16 24 11 35 -12 10 -21 10 -21 -3 -5 -17 21 -31 22 -23 2 5 -13 2 -14
-15 -4 -11 6 -23 8 -27 5 -3 -3 -1 -6 5 -6 6 0 14 -7 17 -16 4 -11 2 -15 -8
-11 -9 4 -13 0 -12 -11 3 -20 30 -23 32 -4 3 25 5 27 13 13 6 -9 6 -22 1 -31
-15 -28 -4 -54 30 -73 38 -21 55 -13 24 12 -20 16 -20 19 -7 42 l14 24 -5 -26
c-4 -18 0 -31 10 -40 13 -11 15 -10 12 5 -2 12 4 20 16 22 14 2 16 0 7 -9 -6
-6 -11 -15 -11 -21 0 -5 3 -6 7 -3 3 4 12 2 20 -4 10 -9 13 -8 13 0 0 7 5 9
12 5 7 -4 8 -3 4 5 -4 6 -12 9 -17 6 -5 -4 -9 -1 -9 4 0 6 6 11 14 11 17 0 38
-25 29 -34 -4 -4 0 -4 9 -1 10 4 15 13 11 23 -4 14 -3 14 5 3 6 -8 8 -20 5
-27 -7 -19 43 -10 70 12 15 13 18 14 9 3 -11 -14 -10 -17 5 -15 10 0 21 6 25
11 5 7 8 7 8 0 0 -6 -9 -18 -19 -27 -14 -12 -22 -13 -31 -5 -10 9 -11 9 -5 -3
8 -13 7 -13 -8 -1 -15 12 -17 11 -17 -3 0 -15 13 -21 35 -16 6 1 15 3 22 3 7
0 10 4 7 9 -3 4 -3 8 0 8 3 0 12 -13 21 -30 14 -27 14 -29 -1 -23 -12 4 -15 2
-12 -8 3 -8 12 -13 20 -11 11 2 14 -4 10 -24 -3 -19 -1 -25 7 -20 6 4 11 2 11
-3 0 -6 -4 -11 -10 -11 -5 0 -10 -8 -10 -17 0 -12 3 -14 8 -7 8 13 72 14 72 1
0 -5 -15 -7 -32 -6 -18 2 -32 -1 -31 -7 1 -5 -8 -10 -20 -11 -12 0 -16 1 -9 4
10 4 10 10 -3 29 -8 13 -11 24 -5 24 5 0 10 7 10 15 0 9 -6 12 -15 9 -8 -4
-15 -13 -15 -21 0 -8 -5 -11 -11 -7 -8 4 -8 0 0 -15 7 -12 9 -26 6 -31 -4 -6
-1 -9 7 -8 7 2 12 -5 12 -14 -1 -12 5 -18 18 -18 13 0 17 -4 12 -12 -6 -10 -4
-10 7 -2 24 18 48 24 55 12 4 -7 3 -8 -4 -4 -8 5 -12 -1 -12 -16 0 -17 3 -19
9 -9 5 8 10 9 12 3 6 -16 33 -19 34 -3 0 8 6 16 13 19 16 5 15 -8 -3 -31 -9
-13 -20 -17 -35 -12 -11 4 -27 2 -35 -5 -8 -7 -15 -7 -19 -1 -4 5 -2 12 4 16
5 3 10 11 10 17 0 7 -5 6 -15 -2 -8 -6 -19 -9 -25 -5 -5 3 -10 -1 -10 -9 0 -9
5 -16 12 -16 6 0 8 -3 5 -6 -4 -4 -13 -1 -21 5 -11 10 -16 9 -24 -5 -8 -14
-13 -14 -33 -4 -13 7 -21 9 -17 5 4 -4 3 -16 -2 -26 -7 -12 -6 -20 2 -25 7 -4
10 -3 5 1 -4 5 5 14 20 20 29 12 46 7 87 -25 12 -9 17 -10 12 -2 -5 8 2 14 23
18 17 4 31 10 31 15 0 5 14 9 31 9 27 0 30 -2 19 -15 -15 -18 -34 -20 -24 -2
5 7 1 7 -10 -2 -16 -13 -16 -15 -1 -24 13 -7 14 -11 3 -25 -9 -11 -9 -13 -1
-9 9 6 9 1 -1 -18 -7 -14 -11 -37 -8 -50 6 -32 12 -27 15 11 1 16 7 27 12 24
6 -3 9 -9 7 -15 -2 -5 -5 -21 -7 -35 -2 -14 -7 -34 -10 -45 -4 -14 1 -24 15
-33 13 -8 20 -8 20 -1 0 5 5 7 10 4 16 -10 -8 -35 -26 -28 -8 3 -14 -1 -14 -8
0 -7 3 -9 6 -6 4 3 15 2 25 -4 15 -7 17 -6 13 6 -4 10 0 15 11 15 12 0 15 -5
11 -16 -3 -9 -6 -18 -6 -20 0 -2 -10 -4 -22 -4 -19 0 -20 -2 -8 -11 12 -9 11
-10 -8 -6 -12 3 -20 1 -16 -4 3 -5 14 -9 24 -9 12 0 17 -5 14 -14 -3 -8 -16
-12 -32 -9 -15 1 -22 1 -15 -3 7 -3 9 -12 6 -20 -3 -8 0 -14 7 -14 6 0 9 4 5
9 -3 5 -1 12 4 15 5 4 12 -2 14 -11 4 -17 5 -17 6 0 0 9 6 17 12 17 5 0 7 -5
3 -12 -4 -6 -3 -8 4 -4 6 3 9 15 7 25 -2 10 1 24 7 32 8 12 9 12 6 -1 -6 -19
13 -39 29 -33 7 3 13 0 13 -7 0 -6 5 -8 12 -4 7 4 8 3 4 -5 -4 -6 -12 -9 -17
-6 -5 4 -9 1 -9 -4 0 -6 5 -11 12 -11 21 0 -7 -21 -31 -23 -25 -2 -25 -1 -4
-18 11 -10 14 -10 9 -1 -4 7 -1 12 8 12 14 0 14 -3 4 -20 -11 -17 -14 -18 -29
-4 -13 12 -19 12 -25 3 -5 -8 -3 -10 5 -5 8 5 14 0 18 -13 3 -11 9 -18 14 -15
5 3 6 -2 3 -11 -7 -18 -30 -14 -26 4 1 7 -3 9 -9 6 -7 -5 -7 -11 -1 -17 6 -6
5 -25 -4 -54 -9 -29 -10 -46 -3 -50 6 -3 9 -17 6 -30 -2 -13 0 -21 5 -18 5 3
6 -5 3 -19 -5 -18 -1 -29 13 -38 10 -8 18 -22 16 -32 -1 -10 2 -14 8 -10 7 4
9 -2 6 -15 -4 -14 -2 -20 5 -15 6 4 8 0 4 -10 -3 -9 -3 -19 2 -21 4 -3 29 -43
56 -88 26 -46 52 -84 56 -86 5 -2 9 -8 9 -14 0 -6 20 -36 45 -67 155 -194 223
-277 298 -361 139 -155 95 -130 -93 53 -459 447 -791 866 -979 1237 -101 197
-143 346 -140 485 2 72 28 143 70 188 10 11 18 22 16 23 -5 6 -112 -51 -116
-61 -2 -5 -22 -28 -43 -49 -21 -22 -38 -43 -38 -48 0 -4 -6 -8 -14 -8 -8 0
-28 -16 -45 -35 l-31 -35 4 -108 c4 -108 20 -168 82 -307 l17 -40 9 35 c14 52
40 101 70 131 26 27 26 27 32 6 3 -12 11 -73 17 -136 22 -238 121 -477 286
-688 850 -1090 2451 -2397 3890 -3172 273 -147 575 -287 800 -371 186 -70 434
-89 597 -45 26 7 28 6 21 -16 -4 -13 -21 -37 -36 -53 -52 -54 -48 -56 134 -77
176 -19 334 11 420 82 79 65 121 190 99 297 -8 39 -9 86 -3 147 10 104 1 173
-60 485 -216 1095 -588 2373 -961 3299 -182 453 -283 607 -452 690 -125 61
-349 107 -726 147 -25 2 -63 6 -85 9 -41 5 -324 28 -545 45 -69 5 -183 12
-255 16 -137 7 -191 9 -641 18 -155 3 -288 7 -295 9 -8 1 -102 0 -209 -3z
m-140 -18 c0 -4 -9 -8 -20 -9 -11 -1 -20 2 -20 8 0 5 9 9 20 9 11 0 20 -4 20
-8z m37 2 c-3 -3 -12 -4 -19 -1 -8 3 -5 6 6 6 11 1 17 -2 13 -5z m70 0 c-3 -3
-12 -4 -19 -1 -8 3 -5 6 6 6 11 1 17 -2 13 -5z m43 -4 c0 -5 -4 -10 -10 -10
-5 0 -10 5 -10 10 0 6 5 10 10 10 6 0 10 -4 10 -10z m63 3 c-7 -2 -21 -2 -30
0 -10 3 -4 5 12 5 17 0 24 -2 18 -5z m74 1 c-3 -3 -12 -4 -19 -1 -8 3 -5 6 6
6 11 1 17 -2 13 -5z m-1882 -175 c-10 -15 -25 -10 -19 6 4 8 10 12 15 9 5 -3
7 -10 4 -15z m55 -52 c0 -16 -18 3 -23 25 -6 22 -5 22 8 4 8 -11 15 -24 15
-29z m-120 23 c0 -5 -7 -7 -15 -4 -8 4 -15 8 -15 10 0 2 7 4 15 4 8 0 15 -4
15 -10z m147 -42 c-3 -8 -6 -5 -6 6 -1 11 2 17 5 13 3 -3 4 -12 1 -19z m-42
-17 c-6 -5 -25 10 -25 20 0 5 6 4 14 -3 8 -7 12 -15 11 -17z m-100 -51 c3 -5
1 -10 -4 -10 -6 0 -11 5 -11 10 0 6 2 10 4 10 3 0 8 -4 11 -10z m60 -20 c-3
-5 -12 -10 -18 -10 -7 0 -6 4 3 10 19 12 23 12 15 0z m155 -12 c0 -9 4 -8 10
2 7 11 10 11 10 2 0 -7 4 -10 10 -7 5 3 17 2 26 -3 11 -6 13 -11 5 -16 -6 -4
-11 -2 -11 3 0 15 -36 8 -57 -11 -16 -14 -19 -15 -32 -1 -12 13 -11 14 8 8 15
-5 21 -2 21 10 0 11 -7 14 -27 10 -23 -4 -25 -4 -8 4 28 14 45 13 45 -1z m160
-28 c0 -5 -5 -10 -11 -10 -5 0 -7 5 -4 10 3 6 8 10 11 10 2 0 4 -4 4 -10z
m-60 -45 c-6 -8 -18 -11 -26 -8 -12 4 -12 8 3 18 22 16 38 8 23 -10z m134 -1
c4 -9 13 -14 22 -10 9 3 12 2 9 -5 -4 -6 -13 -8 -20 -5 -8 3 -16 2 -18 -2 -2
-4 -2 -1 -1 6 4 13 -23 29 -32 20 -2 -3 0 -17 5 -32 8 -20 8 -26 -4 -26 -19 0
-28 17 -14 26 8 5 8 9 -1 14 -7 4 -9 13 -6 19 11 17 53 13 60 -5z m-94 -27
c11 3 20 1 20 -3 0 -5 -13 -9 -29 -9 -21 -1 -27 3 -23 14 3 9 7 10 9 4 2 -6
13 -9 23 -6z m-4 -49 c4 -6 3 -8 -4 -4 -6 3 -15 -2 -21 -11 -5 -10 -12 -15
-16 -12 -3 4 1 14 10 23 20 19 22 19 31 4z m122 -20 c-2 -7 4 -11 12 -10 8 2
12 0 7 -4 -12 -12 -46 -12 -44 0 2 10 17 25 25 26 1 0 1 -6 0 -12z m-56 -26
c-7 -2 -10 -7 -7 -12 3 -4 -3 -11 -12 -14 -10 -4 -14 -4 -10 0 4 4 2 13 -5 21
-8 11 -7 12 6 7 9 -3 16 -1 16 6 0 6 5 8 12 4 9 -6 9 -9 0 -12z m-142 -37 c0
-8 -2 -15 -4 -15 -2 0 -6 7 -10 15 -3 8 -1 15 4 15 6 0 10 -7 10 -15z m192
-137 c-7 -7 -12 -8 -12 -2 0 14 12 26 19 19 2 -3 -1 -11 -7 -17z m-171 -6 c-7
-2 -18 1 -23 6 -8 8 -4 9 13 5 13 -4 18 -8 10 -11z m39 -6 c0 -3 -4 -8 -10
-11 -5 -3 -10 -1 -10 4 0 6 5 11 10 11 6 0 10 -2 10 -4z m131 -29 c-8 -8 -14
-7 -23 2 -11 10 -9 11 6 5 15 -6 17 -4 11 6 -6 9 -4 11 4 5 9 -5 10 -10 2 -18z
m-16 -35 c-3 -3 -11 0 -18 7 -9 10 -8 11 6 5 10 -3 15 -9 12 -12z m25 -62 c3
-1 9 -2 13 -1 5 1 5 -4 2 -10 -5 -7 -11 -7 -17 -1 -6 6 -17 8 -24 5 -8 -3 -14
-1 -14 5 0 9 20 9 40 2z m-15 -40 c4 -6 3 -9 -2 -8 -4 2 -8 -1 -8 -7 0 -5 8
-9 18 -9 9 1 17 -4 17 -10 0 -6 4 -6 9 2 6 11 10 10 15 -4 4 -10 4 -15 0 -11
-4 4 -13 -1 -21 -11 -11 -14 -12 -14 -7 -1 6 18 -10 27 -43 24 -27 -2 -28 2
-6 27 19 21 20 21 28 8z m48 -90 c3 -12 0 -20 -8 -20 -8 0 -11 8 -8 20 3 11 7
20 8 20 1 0 5 -9 8 -20z m49 3 c-10 -4 -9 -10 5 -25 18 -20 18 -21 -4 -7 -32
19 -37 39 -10 38 12 0 16 -3 9 -6z m-15 -51 c0 -7 -6 -11 -13 -8 -7 3 -15 0
-17 -7 -3 -7 -5 -3 -4 8 1 23 34 29 34 7z m-19 -184 c-8 -12 -20 -24 -26 -26
-7 -2 -2 8 11 22 27 32 34 33 15 4z m-33 -48 c3 -5 1 -10 -4 -10 -6 0 -11 5
-11 10 0 6 2 10 4 10 3 0 8 -4 11 -10z m35 -5 c-7 -9 -15 -13 -19 -10 -3 3 1
10 9 15 21 14 24 12 10 -5z m-30 -19 c0 -2 -7 -7 -16 -10 -8 -3 -12 -2 -9 4 6
10 25 14 25 6z m5029 -2674 c11 -20 20 -31 21 -24 0 7 4 11 10 7 5 -3 7 -12 3
-20 -3 -8 -1 -15 4 -15 5 0 9 -18 10 -41 1 -23 9 -49 17 -58 9 -10 16 -25 16
-34 0 -9 4 -17 9 -17 9 0 20 -29 26 -69 2 -13 7 -31 11 -40 4 -9 9 -27 11 -40
2 -14 9 -34 16 -45 6 -12 12 -30 12 -41 1 -11 9 -37 19 -58 9 -21 14 -42 11
-47 -3 -4 -1 -10 4 -12 5 -1 12 -25 16 -53 8 -67 10 -75 24 -110 7 -16 14 -41
16 -55 5 -31 13 -64 15 -67 2 -2 3 -6 4 -10 5 -23 47 -92 58 -96 24 -8 -5 -38
-57 -59 -72 -29 -277 -36 -400 -14 -122 23 -183 44 -187 64 -2 9 11 37 29 61
18 24 33 50 33 57 0 8 4 14 8 14 5 0 9 26 10 58 2 93 18 262 33 349 6 34 12
79 14 100 2 21 5 48 8 60 3 11 9 43 13 70 3 26 11 57 17 68 6 11 12 35 14 54
1 19 9 39 18 43 8 5 15 16 15 23 0 8 6 15 13 15 8 0 7 4 -3 10 -14 9 -13 11 9
14 5 0 13 4 16 8 13 13 44 -12 64 -50z"/>
<path d="M28040 37069 c0 -5 18 -9 41 -9 22 0 38 4 35 9 -3 5 -22 9 -41 9 -19
0 -35 -4 -35 -9z"/>
<path d="M26843 36715 c0 -8 4 -12 9 -9 5 3 6 10 3 15 -9 13 -12 11 -12 -6z"/>
<path d="M27010 36661 c0 -5 5 -13 10 -16 6 -3 10 -2 10 4 0 5 -4 13 -10 16
-5 3 -10 2 -10 -4z"/>
<path d="M26904 36639 c-3 -6 -2 -15 3 -20 5 -5 9 -1 9 11 0 23 -2 24 -12 9z"/>
<path d="M27045 36643 c3 -3 0 -12 -5 -18 -7 -9 -6 -14 3 -18 14 -5 17 28 4
38 -4 3 -5 2 -2 -2z"/>
<path d="M26930 36620 c0 -5 5 -10 11 -10 5 0 7 5 4 10 -3 6 -8 10 -11 10 -2
0 -4 -4 -4 -10z"/>
<path d="M27104 36593 c2 -9 8 -18 15 -19 6 -1 7 0 1 3 -5 2 -8 9 -5 13 3 5 1
11 -4 14 -5 4 -8 -2 -7 -11z"/>
<path d="M27140 36561 c0 -5 -8 -12 -17 -14 -14 -4 -12 -5 5 -6 13 -1 22 5 22
14 0 8 -2 15 -5 15 -3 0 -5 -4 -5 -9z"/>
<path d="M26985 36500 c-4 -6 -1 -9 7 -8 7 2 12 -5 12 -14 -1 -10 2 -18 6 -18
10 0 22 31 15 38 -3 3 -5 2 -5 -3 0 -4 -6 -2 -14 4 -10 8 -16 9 -21 1z"/>
<path d="M27064 36486 c1 -8 5 -18 8 -22 4 -3 5 1 4 10 -1 8 -5 18 -8 22 -4 3
-5 -1 -4 -10z"/>
<path d="M27094 36463 c7 -12 -5 -18 -27 -14 -5 1 -6 -3 -2 -9 10 -16 44 -12
41 5 -1 8 -6 18 -11 22 -4 4 -5 2 -1 -4z"/>
<path d="M27125 36460 c-3 -5 -1 -10 4 -10 6 0 11 5 11 10 0 6 -2 10 -4 10 -3
0 -8 -4 -11 -10z"/>
<path d="M27015 36419 c-4 -6 -5 -12 -2 -15 2 -3 7 2 10 11 7 17 1 20 -8 4z"/>
<path d="M27125 36420 c3 -5 11 -10 16 -10 6 0 7 5 4 10 -3 6 -11 10 -16 10
-6 0 -7 -4 -4 -10z"/>
<path d="M27094 36405 c8 -8 18 -15 22 -15 3 0 1 7 -6 15 -7 8 -17 15 -22 15
-5 0 -3 -7 6 -15z"/>
<path d="M27070 36370 c0 -5 5 -10 11 -10 5 0 7 5 4 10 -3 6 -8 10 -11 10 -2
0 -4 -4 -4 -10z"/>
<path d="M27255 36319 c-11 -17 1 -21 15 -4 8 9 8 15 2 15 -6 0 -14 -5 -17
-11z"/>
<path d="M27200 36306 c0 -2 7 -7 16 -10 8 -3 12 -2 9 4 -6 10 -25 14 -25 6z"/>
<path d="M27266 36294 c-14 -10 -17 -17 -9 -25 8 -8 13 -8 17 0 4 6 4 11 -1
11 -4 0 -1 4 7 10 8 5 12 11 10 14 -3 2 -14 -2 -24 -10z"/>
<path d="M27120 36261 c0 -11 3 -22 8 -24 4 -3 7 6 7 19 0 13 -3 24 -7 24 -5
0 -8 -9 -8 -19z"/>
<path d="M27170 36276 c0 -2 7 -7 16 -10 8 -3 12 -2 9 4 -6 10 -25 14 -25 6z"/>
<path d="M27259 36223 c-13 -16 -12 -17 4 -4 16 13 21 21 13 21 -2 0 -10 -8
-17 -17z"/>
<path d="M27219 36173 c-13 -16 -12 -17 4 -4 16 13 21 21 13 21 -2 0 -10 -8
-17 -17z"/>
<path d="M27290 36120 c0 -5 5 -10 11 -10 5 0 7 5 4 10 -3 6 -8 10 -11 10 -2
0 -4 -4 -4 -10z"/>
<path d="M23435 36080 c-118 -5 -103 -6 95 -7 228 0 274 3 120 9 -41 2 -138 1
-215 -2z"/>
<path d="M23155 36063 c-93 -11 -115 -15 -115 -22 0 -4 21 -4 48 1 26 4 81 12
122 16 61 7 66 9 25 9 -27 0 -63 -2 -80 -4z"/>
<path d="M23771 36066 c2 -2 38 -6 79 -9 44 -3 63 -2 45 3 -30 8 -132 13 -124
6z"/>
<path d="M23955 36040 c17 -4 44 -8 60 -8 25 0 24 2 -10 9 -51 10 -92 10 -50
-1z"/>
<path d="M22988 36033 c6 -2 18 -2 25 0 6 3 1 5 -13 5 -14 0 -19 -2 -12 -5z"/>
<path d="M22870 36014 l-55 -13 56 4 c30 2 66 9 80 14 l24 10 -25 -1 c-14 0
-50 -6 -80 -14z"/>
<path d="M24135 36005 c158 -44 198 -57 310 -102 102 -41 287 -134 345 -173
14 -10 56 -37 95 -61 38 -24 88 -60 112 -79 23 -19 65 -53 93 -75 29 -22 84
-70 123 -106 40 -37 74 -66 75 -64 7 6 -123 128 -218 204 -181 146 -413 283
-620 364 -122 48 -299 102 -365 111 -22 4 1 -5 50 -19z"/>
<path d="M22715 35980 c-33 -10 -49 -18 -35 -18 14 0 48 8 75 18 64 23 39 23
-40 0z"/>
<path d="M27390 35970 c0 -5 5 -10 11 -10 5 0 7 5 4 10 -3 6 -8 10 -11 10 -2
0 -4 -4 -4 -10z"/>
<path d="M22600 35951 c-8 -5 -32 -12 -54 -15 -55 -10 -38 -18 23 -10 54 7
106 33 66 33 -11 0 -27 -3 -35 -8z"/>
<path d="M27330 35945 c-7 -9 -10 -18 -6 -22 3 -3 6 -1 6 7 0 10 3 10 15 0 10
-9 15 -9 15 -1 0 6 -5 11 -11 11 -5 0 -7 5 -4 10 10 15 -1 12 -15 -5z"/>
<path d="M22348 35871 c-96 -32 -138 -51 -138 -61 0 -13 2 -13 9 -1 5 8 16 11
26 8 9 -4 13 -3 10 3 -3 5 7 12 22 15 15 4 60 18 98 32 39 13 79 27 89 29 20
4 48 25 31 23 -6 -1 -72 -22 -147 -48z"/>
<path d="M27341 35897 c-8 -10 -7 -14 2 -14 8 0 14 6 14 14 0 7 -1 13 -2 13
-2 0 -8 -6 -14 -13z"/>
<path d="M22170 35800 c0 -5 7 -7 15 -4 8 4 15 8 15 10 0 2 -7 4 -15 4 -8 0
-15 -4 -15 -10z"/>
<path d="M22030 35751 c-200 -84 -196 -82 -177 -92 11 -7 23 -6 35 0 13 8 14
10 2 11 -13 0 -13 2 -1 9 8 5 20 7 28 4 7 -3 13 0 13 6 0 15 67 44 81 36 5 -4
16 1 25 10 10 9 24 13 35 10 13 -4 19 -2 17 6 -2 7 6 15 17 17 22 5 65 32 50
32 -6 -1 -62 -22 -125 -49z"/>
<path d="M21557 35531 c-138 -70 -282 -147 -319 -170 -37 -22 -72 -41 -77 -41
-5 0 -15 -7 -22 -16 -12 -15 -11 -16 11 -9 14 4 27 11 30 15 3 4 23 10 45 11
40 4 72 30 60 49 -3 6 1 10 9 10 9 0 16 5 16 10 0 6 9 10 20 10 11 0 20 5 20
10 0 6 4 10 10 10 5 0 7 -7 4 -15 -5 -11 -2 -13 10 -9 12 5 14 10 6 19 -13 16
8 26 43 19 18 -3 26 1 29 14 5 19 70 55 98 55 8 0 21 9 28 19 8 10 19 18 25
17 25 -3 38 1 32 10 -7 13 32 34 50 27 7 -2 19 1 25 9 6 8 18 11 26 8 18 -7
46 16 37 30 -3 5 -1 7 5 4 5 -4 17 -4 25 -1 18 6 31 34 17 34 -6 0 -124 -58
-263 -129z m198 79 c-3 -5 -12 -10 -18 -10 -7 0 -6 4 3 10 19 12 23 12 15 0z
m-485 -254 c0 -3 -4 -8 -10 -11 -5 -3 -10 -1 -10 4 0 6 5 11 10 11 6 0 10 -2
10 -4z"/>
<path d="M25300 35330 c0 -5 5 -10 11 -10 5 0 7 5 4 10 -3 6 -8 10 -11 10 -2
0 -4 -4 -4 -10z"/>
<path d="M21063 35263 c-13 -9 -23 -22 -23 -30 0 -8 -4 -11 -10 -8 -5 3 -41
-12 -79 -35 -49 -28 -69 -45 -65 -55 4 -8 9 -14 13 -12 52 24 80 44 77 54 -5
12 23 28 32 18 3 -3 0 -5 -6 -5 -7 0 -12 -4 -12 -10 0 -20 20 -9 26 15 3 13 9
24 13 23 20 -2 42 3 38 10 -3 4 5 16 16 27 11 11 17 15 14 9 -7 -13 40 -7 48
6 9 14 -60 8 -82 -7z m-123 -103 c0 -5 -4 -10 -10 -10 -5 0 -10 5 -10 10 0 6
5 10 10 10 6 0 10 -4 10 -10z"/>
<path d="M20860 35130 c0 -5 -5 -9 -11 -7 -6 1 -13 -9 -14 -23 -2 -14 -1 -19
1 -12 3 6 12 12 20 12 8 0 14 2 14 4 0 2 3 11 6 20 3 9 1 16 -5 16 -6 0 -11
-4 -11 -10z"/>
<path d="M20775 35080 c-22 -16 -55 -37 -73 -46 -19 -9 -37 -27 -42 -38 -4
-12 -10 -20 -14 -18 -18 7 -29 1 -19 -9 13 -13 53 4 53 22 0 6 7 9 15 5 9 -3
15 0 15 10 0 8 6 14 13 13 27 -3 36 2 39 24 2 16 9 21 26 20 12 -2 25 4 28 12
12 31 -3 32 -41 5z"/>
<path d="M20518 34907 c-43 -28 -78 -59 -78 -67 0 -13 1 -13 11 0 8 12 12 12
16 2 4 -10 8 -10 19 -1 8 7 26 13 40 13 13 1 24 5 24 9 0 4 -3 7 -6 6 -10 -1
-23 24 -18 33 3 4 10 8 15 8 6 0 7 -4 4 -10 -3 -5 -1 -10 4 -10 6 0 14 0 18 0
4 0 8 10 8 23 0 12 6 21 13 20 6 -2 12 2 12 8 0 5 5 7 12 3 7 -4 8 -3 4 4 -11
18 -14 16 -98 -41z m-33 -47 c3 -5 1 -10 -4 -10 -6 0 -11 5 -11 10 0 6 2 10 4
10 3 0 8 -4 11 -10z"/>
<path d="M22535 34923 c-101 -6 -303 -36 -425 -64 -1121 -252 -2414 -1290
-2957 -2372 -81 -163 -123 -260 -174 -402 -199 -557 -205 -1115 -17 -1630 38
-104 156 -352 182 -385 7 -8 30 -43 50 -78 107 -179 438 -525 599 -625 44 -28
31 -14 -50 56 -168 142 -359 351 -464 510 -116 175 -219 420 -245 587 -4 25
-9 56 -12 70 -12 66 -10 98 8 113 10 8 20 13 23 11 2 -3 7 2 10 11 4 8 2 15
-4 15 -6 0 -3 7 5 16 9 8 21 12 27 8 8 -4 9 -3 5 4 -4 7 -2 12 4 12 6 0 9 4 5
9 -3 5 -1 12 5 16 5 3 10 1 10 -6 0 -7 3 -9 6 -6 4 4 1 13 -5 21 -14 16 -6 40
10 31 5 -3 6 1 3 9 -4 11 0 16 11 16 9 0 13 5 10 10 -3 6 -1 10 4 10 6 0 11 9
11 20 0 12 7 20 17 20 13 0 14 3 5 12 -17 17 -15 51 2 45 11 -4 13 -1 9 10 -5
12 -1 14 18 9 21 -6 22 -6 5 5 -14 9 -15 13 -5 19 12 8 19 26 21 57 1 9 5 9
13 3 8 -7 11 -4 10 10 -1 11 -4 22 -7 26 -4 3 0 20 7 38 11 25 11 36 3 44 -9
9 -9 12 1 12 7 0 10 4 6 9 -3 5 -1 12 5 16 6 3 8 17 6 31 -3 15 1 27 12 34 9
5 12 10 5 10 -7 0 -17 10 -24 22 -10 18 -9 20 5 15 12 -5 16 0 16 16 0 13 -5
28 -12 35 -9 9 -9 12 0 12 6 0 9 7 5 17 -5 11 -3 14 6 9 9 -6 8 1 -2 21 -14
26 -14 32 4 68 21 47 23 59 7 49 -7 -5 -8 -3 -3 6 4 7 8 27 7 44 -1 23 2 27 9
16 7 -11 9 -1 6 32 -3 34 0 49 11 53 11 4 11 9 3 18 -8 10 -7 17 2 27 9 10 9
11 0 6 -7 -4 -13 -2 -13 3 0 6 5 11 10 11 6 0 10 14 10 30 0 28 11 55 36 90 6
8 16 34 23 58 6 23 17 42 23 42 6 0 6 6 -2 16 -11 12 -11 15 1 12 8 -2 18 -7
22 -13 4 -5 5 3 1 19 -5 23 -4 27 6 21 10 -6 12 -4 6 10 -6 16 -4 16 11 4 9
-8 14 -9 10 -2 -4 6 -1 14 5 16 10 4 10 6 1 6 -21 2 -15 18 13 36 15 9 23 12
20 6 -4 -6 -3 -11 3 -11 5 0 13 5 16 10 4 6 11 7 17 4 7 -4 8 -2 4 5 -10 16
15 38 42 36 12 -1 22 3 22 9 0 6 4 5 9 -3 5 -7 14 -10 21 -6 8 5 9 10 1 14 -6
4 -2 12 10 20 17 10 20 10 13 -1 -4 -7 5 -2 19 11 15 13 33 21 41 18 9 -4 19
1 24 10 6 10 17 14 31 10 11 -3 24 -1 27 5 3 5 12 7 20 4 8 -3 14 -1 14 4 0 6
3 9 8 9 27 -5 61 4 78 19 11 9 26 18 34 20 8 2 17 8 18 13 2 5 8 7 13 3 5 -3
9 0 9 7 0 8 4 8 15 -1 13 -11 14 -10 9 4 -4 11 -1 16 10 16 9 0 16 5 16 11 0
5 4 8 9 5 5 -3 14 1 21 10 7 8 19 13 27 10 7 -3 13 1 13 9 0 8 7 15 15 15 9 0
26 7 39 16 14 8 36 16 51 18 35 4 62 26 228 191 77 77 155 150 171 163 17 12
58 49 91 81 33 31 78 71 100 87 48 35 55 40 180 146 105 88 225 180 310 238
130 89 193 132 232 159 23 16 81 53 130 82 89 54 142 90 177 122 11 9 25 17
31 17 7 0 20 9 30 20 18 20 18 21 0 14 -16 -6 -16 -5 3 14 12 12 24 22 27 22
3 0 19 16 36 35 17 19 37 35 45 35 8 0 14 3 14 8 1 10 81 67 91 65 5 -2 9 2 9
8 0 5 5 7 10 4 6 -3 10 1 10 9 0 9 4 16 9 16 5 0 16 6 23 13 7 6 40 25 73 41
33 16 69 37 80 47 11 10 22 18 25 18 12 0 46 15 61 27 8 8 28 15 42 16 15 1
27 6 27 10 0 4 3 7 8 6 13 -3 87 14 97 23 6 4 20 7 30 5 11 -2 34 1 50 5 37 9
112 19 188 25 32 2 62 6 68 9 5 4 9 2 9 -3 0 -5 7 -9 15 -9 8 0 15 4 15 9 0 5
5 6 11 2 6 -4 23 -8 38 -9 122 -11 187 -17 205 -21 11 -2 38 -6 61 -10 22 -3
42 -9 45 -13 3 -3 16 -7 30 -8 14 0 39 -4 55 -8 17 -3 36 -7 43 -7 6 -1 12 -6
12 -11 0 -6 3 -8 6 -4 3 3 23 -1 45 -8 21 -8 39 -11 39 -8 0 3 9 -4 19 -16 11
-12 21 -21 23 -20 2 2 14 -1 28 -5 33 -10 99 -13 94 -4 -9 14 8 33 32 34 30 2
50 27 59 74 4 19 11 40 16 46 5 6 6 19 3 29 -5 13 -9 14 -16 3 -6 -9 -7 -6 -3
10 4 14 0 28 -11 40 -17 16 -17 17 0 20 10 2 25 -3 35 -12 10 -9 21 -16 25
-16 4 0 12 -4 19 -10 7 -5 30 -25 52 -42 195 -160 329 -335 469 -613 83 -163
109 -223 142 -324 24 -72 52 -132 40 -86 -3 11 -10 41 -15 66 -16 73 -86 259
-145 386 -113 244 -259 457 -431 628 -330 329 -710 527 -1097 574 -90 11 -302
19 -383 14z m-3135 -2943 c0 -5 -4 -10 -10 -10 -5 0 -10 5 -10 10 0 6 5 10 10
10 6 0 10 -4 10 -10z m-40 -85 c0 -8 -4 -15 -10 -15 -5 0 -7 7 -4 15 4 8 8 15
10 15 2 0 4 -7 4 -15z"/>
<path d="M20366 34802 c-60 -45 -127 -110 -123 -120 1 -4 -2 -7 -8 -7 -5 0 -8
6 -7 14 3 12 1 12 -11 0 -25 -24 -57 -49 -62 -49 -7 0 -133 -97 -155 -119 -8
-8 -15 -18 -15 -23 0 -4 -4 -8 -8 -8 -12 1 -37 -27 -37 -42 0 -10 -3 -9 -10 2
-15 23 -35 -2 -21 -27 6 -10 11 -12 11 -5 0 6 3 11 8 11 4 -1 18 -1 32 1 20 1
21 3 8 8 -20 8 -11 28 12 27 8 0 21 7 28 17 7 10 19 18 26 18 8 0 16 9 19 21
3 13 10 18 17 14 8 -5 11 1 8 16 -2 19 2 25 20 27 12 2 22 9 22 15 0 7 4 6 9
-2 7 -12 13 -12 24 -3 7 7 17 9 21 5 4 -4 5 -1 2 7 -9 23 5 35 52 49 29 8 42
17 39 26 -6 15 32 54 71 71 15 7 21 13 13 13 -11 1 -11 4 -1 16 14 17 35 21
25 5 -3 -5 -1 -10 5 -10 6 0 10 7 8 16 -2 10 3 19 11 22 10 3 12 -1 8 -17 -3
-11 -1 -24 4 -27 5 -3 9 -2 8 3 -1 4 0 10 1 13 5 12 5 60 0 60 -3 -1 -27 -18
-54 -38z m-316 -256 c0 -2 -8 -10 -17 -17 -16 -13 -17 -12 -4 4 13 16 21 21
21 13z"/>
<path d="M25699 34808 c5 -13 37 -81 71 -153 197 -411 310 -735 379 -1080 32
-160 37 -196 46 -290 4 -33 10 -96 14 -140 4 -44 6 -98 3 -120 -2 -22 -4 -88
-5 -147 -1 -60 -4 -108 -7 -108 -6 0 -27 -67 -35 -107 -2 -13 -11 -33 -19 -45
-9 -12 -16 -29 -16 -37 0 -7 -9 -22 -21 -32 -11 -10 -18 -23 -14 -28 3 -6 1
-11 -5 -11 -6 0 -8 -4 -5 -10 3 -5 -1 -10 -9 -10 -11 0 -15 -7 -13 -22 4 -22
-3 -36 -35 -65 -9 -9 -15 -20 -12 -25 3 -5 2 -8 -3 -7 -22 4 -34 -3 -44 -23
-17 -40 -39 -73 -39 -63 0 6 -10 -9 -21 -32 -11 -24 -24 -43 -29 -43 -6 0 -9
-3 -8 -7 4 -19 -16 -63 -38 -84 -13 -12 -21 -26 -17 -32 3 -6 1 -7 -5 -3 -6 3
-13 2 -17 -4 -3 -5 -1 -10 6 -10 6 0 -6 -16 -27 -35 -20 -19 -35 -37 -32 -41
11 -10 -13 -64 -29 -64 -9 0 -13 -6 -9 -15 3 -10 -1 -15 -11 -15 -9 0 -13 -3
-10 -6 4 -4 -2 -19 -13 -34 -11 -16 -20 -33 -20 -39 0 -6 -11 -18 -25 -27 -24
-15 -37 -43 -14 -28 7 4 6 -3 -2 -17 -7 -13 -12 -28 -11 -32 1 -4 -9 -20 -23
-35 -14 -15 -29 -40 -34 -57 -4 -17 -14 -30 -23 -29 -11 1 -18 -18 -27 -72 -8
-49 -17 -74 -26 -74 -15 0 -26 -22 -31 -64 -2 -17 -10 -33 -17 -38 -9 -6 -8
-8 3 -8 10 0 6 -8 -12 -24 -16 -13 -28 -30 -28 -39 0 -9 -4 -19 -10 -22 -5 -3
-10 -16 -10 -27 0 -11 -10 -29 -21 -39 -12 -10 -19 -25 -16 -33 3 -8 -1 -17
-9 -20 -9 -3 -12 -10 -9 -16 3 -5 1 -10 -5 -10 -6 0 -9 -4 -5 -9 3 -6 -4 -15
-15 -21 -11 -6 -18 -15 -15 -21 4 -5 -1 -12 -9 -15 -9 -3 -14 -10 -11 -14 3
-5 -2 -15 -11 -24 -8 -9 -27 -51 -41 -93 -14 -43 -32 -83 -39 -89 -8 -6 -14
-16 -14 -22 0 -6 -4 -12 -8 -14 -5 -1 -24 -40 -44 -85 -19 -46 -37 -80 -40
-77 -3 3 -9 -8 -13 -23 -3 -15 -13 -35 -22 -45 -13 -14 -20 -33 -22 -61 -1 -5
-5 -5 -11 -2 -5 3 -10 1 -10 -5 0 -6 -4 -9 -9 -5 -5 3 -13 0 -17 -6 -4 -8 -3
-9 4 -5 7 4 12 3 12 -3 0 -5 -8 -15 -17 -20 -10 -6 -14 -11 -10 -11 5 0 1 -7
-8 -16 -9 -9 -14 -23 -11 -31 3 -8 1 -11 -4 -8 -12 7 -41 -55 -33 -69 4 -5 1
-6 -5 -2 -8 5 -12 -1 -12 -14 0 -13 -4 -19 -12 -14 -6 4 -8 3 -5 -3 4 -6 -2
-21 -12 -34 -10 -13 -20 -28 -21 -34 -1 -5 -6 -9 -10 -8 -4 1 -11 -9 -14 -22
-4 -14 -11 -25 -16 -25 -6 0 -10 -12 -10 -26 0 -14 -4 -23 -10 -19 -5 3 -10
-1 -10 -9 0 -9 -4 -16 -10 -16 -5 0 -10 -4 -10 -10 0 -9 -26 -52 -70 -115 -12
-16 -30 -45 -41 -63 -11 -18 -24 -30 -29 -27 -6 3 -10 0 -10 -8 0 -8 -11 -26
-25 -41 -13 -14 -21 -26 -17 -26 4 0 -1 -5 -10 -11 -10 -5 -18 -17 -18 -25 0
-8 -4 -13 -9 -10 -10 6 -26 -23 -22 -39 2 -5 -1 -7 -5 -3 -9 9 -56 -40 -49
-52 3 -4 -6 -11 -20 -14 -14 -4 -25 -11 -25 -18 0 -6 -13 -24 -30 -40 -16 -15
-30 -34 -30 -42 0 -8 -7 -16 -15 -20 -8 -3 -15 -12 -15 -21 0 -8 -7 -15 -15
-15 -15 0 -41 -38 -37 -53 1 -5 -1 -6 -6 -3 -5 3 -27 -13 -48 -35 -77 -81 -97
-99 -108 -99 -6 0 -4 -4 3 -9 12 -8 10 -11 -11 -16 -14 -4 -31 -17 -38 -31 -8
-13 -19 -24 -27 -24 -7 0 -13 -4 -13 -8 0 -18 -39 -54 -51 -46 -8 4 -9 3 -5
-4 4 -6 -10 -21 -34 -34 -22 -13 -40 -31 -40 -40 0 -10 -5 -18 -10 -18 -6 0
-22 -12 -36 -27 -14 -16 -22 -21 -18 -13 4 8 -12 -4 -35 -28 -26 -27 -48 -41
-57 -38 -9 3 -12 1 -9 -4 3 -6 -1 -10 -10 -10 -9 0 -13 -4 -10 -10 3 -5 -1
-10 -9 -10 -18 0 -56 -35 -56 -51 0 -6 -6 -9 -12 -6 -18 6 -48 -11 -48 -27 0
-17 -19 -33 -45 -38 -11 -1 -28 -12 -37 -22 -10 -10 -18 -15 -18 -11 0 5 -10
-1 -23 -13 -21 -20 -93 -63 -167 -100 -19 -9 -42 -24 -50 -33 -8 -9 -23 -15
-32 -14 -9 2 -26 -7 -38 -20 -13 -14 -28 -21 -38 -18 -11 5 -13 3 -7 -7 6 -10
3 -12 -14 -7 -18 4 -21 2 -17 -10 4 -11 2 -13 -9 -9 -8 3 -15 1 -15 -4 0 -6
-7 -10 -15 -10 -25 0 -65 -23 -58 -33 4 -6 0 -8 -10 -4 -10 3 -17 2 -17 -4 0
-6 -4 -7 -10 -4 -5 3 -10 2 -10 -4 0 -5 -9 -8 -20 -6 -11 2 -20 -1 -20 -6 0
-6 -9 -7 -20 -4 -11 4 -20 2 -20 -4 0 -6 -5 -11 -11 -11 -6 0 -20 -11 -30 -25
-11 -13 -26 -22 -33 -19 -7 3 -20 -1 -27 -9 -8 -7 -20 -12 -28 -9 -9 3 -11 0
-6 -8 6 -10 4 -12 -8 -7 -10 3 -17 3 -17 -2 0 -4 -7 -8 -15 -9 -8 -1 -22 -3
-30 -4 -8 -1 -12 -5 -9 -9 2 -4 -22 -15 -53 -24 -32 -9 -65 -19 -73 -22 -8 -4
-19 -8 -25 -8 -25 -4 -44 -18 -38 -27 4 -7 -4 -9 -21 -6 -14 3 -29 1 -32 -4
-3 -5 -12 -7 -20 -4 -8 3 -14 -1 -14 -8 0 -9 -7 -12 -20 -9 -12 3 -20 0 -20
-6 0 -7 -4 -10 -9 -7 -15 9 -115 -17 -127 -33 -6 -8 -16 -11 -22 -7 -7 4 -12
3 -12 -2 0 -13 -57 -35 -74 -29 -8 3 -17 -1 -20 -9 -3 -9 -10 -13 -15 -10 -4
3 -19 -3 -31 -14 -12 -11 -27 -17 -31 -14 -5 3 -15 2 -21 -3 -7 -4 -16 -8 -20
-9 -5 -1 -9 -2 -10 -4 -9 -7 -105 -20 -142 -20 -16 0 -38 -7 -49 -17 -14 -13
-18 -13 -12 -3 7 12 6 13 -6 3 -8 -6 -17 -12 -21 -12 -5 -1 -9 -2 -10 -2 -2
-1 -14 -2 -28 -3 -14 -1 -32 -6 -40 -11 -8 -5 -33 -11 -55 -12 -48 -3 -95 -21
-95 -37 0 -6 -5 -4 -10 4 -5 8 -10 10 -10 5 0 -6 -10 -11 -22 -12 -11 -1 -24
-6 -27 -11 -7 -12 -64 -25 -112 -26 -20 -1 -43 -7 -51 -13 -13 -11 -23 -13
-90 -14 -15 0 -30 -5 -34 -11 -5 -8 -1 -9 10 -5 11 4 16 3 14 -4 -2 -6 -7 -10
-12 -9 -5 1 -12 -4 -17 -12 -6 -9 -11 -10 -19 -2 -12 12 -50 7 -50 -6 0 -4
-12 -6 -27 -5 -16 1 -30 -2 -33 -7 -3 -4 -16 -9 -29 -11 -12 -2 -26 -9 -31
-17 -5 -7 -13 -9 -21 -4 -11 6 -11 4 0 -10 13 -16 12 -16 -12 -5 -24 11 -29
10 -42 -7 -8 -10 -15 -14 -15 -8 0 6 -7 11 -15 11 -8 0 -12 -4 -10 -8 3 -3 -2
-12 -9 -18 -11 -10 -17 -8 -25 6 -9 17 -11 16 -20 -7 -8 -21 -10 -22 -10 -5
-1 18 -3 18 -24 -7 -16 -19 -27 -24 -37 -18 -9 6 -17 5 -21 -2 -4 -6 -27 -11
-52 -12 -25 0 -43 -4 -41 -7 7 -11 -22 -18 -36 -9 -9 6 -19 2 -28 -11 -7 -10
-19 -19 -25 -19 -7 0 -6 4 3 10 8 5 12 11 9 15 -3 3 -16 -3 -28 -14 -16 -14
-18 -21 -9 -24 8 -3 6 -6 -5 -6 -25 -1 -68 -31 -61 -43 4 -6 -4 -5 -16 2 -15
8 -20 8 -16 1 4 -6 0 -14 -8 -17 -9 -3 -14 -10 -11 -14 3 -5 0 -12 -6 -16 -8
-5 -9 -3 -4 5 5 9 1 12 -11 10 -11 -2 -25 0 -32 5 -10 6 -12 3 -10 -10 3 -18
-42 -50 -52 -36 -9 12 -30 13 -28 1 2 -6 -3 -14 -9 -16 -7 -3 -13 0 -13 6 0 6
-5 11 -11 11 -5 0 -7 -4 -4 -10 3 -5 0 -11 -7 -11 -45 -5 -56 -7 -67 -13 -6
-4 -11 -1 -11 6 0 9 -3 9 -8 2 -10 -15 -42 -25 -42 -13 0 5 -6 9 -12 8 -7 -1
-33 1 -58 4 -40 6 -80 10 -190 21 -19 2 -42 6 -50 9 -8 3 -37 11 -65 18 -27 6
-56 16 -62 22 -7 5 -13 6 -13 1 0 -4 -5 -3 -12 4 -7 7 -20 12 -30 12 -10 0
-26 4 -36 9 -9 5 -46 22 -82 37 -102 45 -287 140 -322 167 -18 14 -51 34 -73
46 -57 30 -144 89 -210 141 -32 25 -67 52 -79 60 -135 94 -412 372 -577 581
-189 239 -292 416 -449 774 -20 45 -109 324 -118 370 -6 28 -20 100 -32 160
-12 61 -23 117 -25 125 -1 8 -6 53 -9 100 -4 47 -9 108 -12 135 -18 169 6 513
52 745 3 14 9 45 14 70 16 79 93 349 117 410 3 8 7 20 8 25 2 13 31 83 50 118
8 16 15 37 15 48 0 10 5 19 10 19 6 0 10 9 10 20 0 11 32 86 71 168 110 226
123 252 132 252 4 0 7 8 7 18 0 11 9 27 20 37 11 10 20 22 20 27 0 5 18 37 40
71 22 34 46 74 53 89 6 15 15 28 19 28 5 0 8 7 8 16 0 9 8 23 18 30 9 7 18 16
18 21 5 28 18 53 28 53 6 0 16 8 21 18 6 10 19 35 29 55 11 20 27 39 35 42 9
3 28 31 44 63 31 65 59 102 78 102 7 0 9 3 6 6 -3 4 3 18 13 32 11 13 20 31
20 39 0 8 4 12 9 9 11 -7 90 82 97 111 4 13 11 20 20 16 8 -3 14 1 14 11 0 9
5 16 10 16 6 0 10 9 10 20 0 12 7 20 16 20 10 0 14 6 11 14 -4 9 5 19 24 26
16 7 28 15 25 17 -8 8 18 31 28 25 5 -3 6 0 2 6 -4 6 2 17 13 23 10 7 17 18
14 24 -2 7 21 37 51 67 31 31 56 60 56 66 0 5 10 12 21 15 14 4 20 11 16 20
-4 10 7 19 32 29 32 13 39 21 45 52 6 31 10 36 27 31 11 -4 19 -3 18 2 -1 4
-1 17 0 28 1 17 3 18 11 5 7 -11 10 -11 10 -2 0 7 5 10 11 6 8 -4 9 0 4 15 -4
15 -2 21 9 21 8 0 17 9 21 19 4 13 12 17 25 14 15 -4 18 -1 13 16 -3 12 -1 21
6 21 6 0 11 7 11 15 0 8 3 14 8 14 19 -3 33 3 52 23 11 12 23 19 27 15 3 -4
15 12 25 34 12 28 23 39 33 36 15 -6 28 7 31 32 2 7 12 22 23 32 12 11 21 26
21 34 0 8 5 15 11 15 6 0 8 -9 4 -21 -6 -18 -5 -19 14 -7 26 16 26 20 0 36
-19 12 -25 10 -61 -25 -22 -21 -44 -49 -49 -62 -5 -13 -12 -21 -16 -17 -9 9
-233 -216 -226 -227 3 -6 2 -7 -4 -4 -6 4 -37 -23 -69 -60 -33 -36 -75 -82
-95 -102 -35 -35 -92 -99 -231 -264 -38 -43 -68 -85 -68 -93 0 -8 -4 -14 -10
-14 -5 0 -10 -8 -11 -17 0 -10 -3 -13 -5 -6 -7 17 -170 -198 -327 -432 -143
-212 -282 -448 -346 -586 -21 -46 -54 -118 -73 -159 -34 -74 -70 -166 -143
-365 -21 -55 -57 -178 -82 -274 -184 -723 -123 -1434 180 -2091 44 -96 90
-191 103 -210 12 -19 59 -95 104 -169 173 -282 484 -633 775 -877 275 -230
758 -544 1035 -672 240 -112 332 -150 515 -214 1374 -481 2913 -328 4080 405
869 546 1538 1424 1889 2477 298 896 382 1965 231 2929 -29 187 -93 485 -131
611 -14 47 -30 103 -35 125 -6 22 -15 45 -21 50 -8 7 -9 6 -4 -2 4 -7 3 -13
-3 -13 -6 0 -20 33 -32 73 -101 339 -318 828 -467 1050 -26 39 -51 79 -57 89
-14 26 -26 22 -16 -4z m-6519 -1021 c0 -2 -10 -12 -22 -23 l-23 -19 19 23 c18
21 26 27 26 19z m7097 -219 c-3 -8 -6 -5 -6 6 -1 11 2 17 5 13 3 -3 4 -12 1
-19z m-4252 -5448 c3 -5 1 -10 -4 -10 -6 0 -11 5 -11 10 0 6 2 10 4 10 3 0 8
-4 11 -10z"/>
<path d="M20366 34741 c-4 -5 3 -7 14 -4 23 6 26 13 6 13 -8 0 -17 -4 -20 -9z"/>
<path d="M20290 34670 c-13 -8 -12 -10 3 -10 9 0 17 5 17 10 0 12 -1 12 -20 0z"/>
<path d="M19841 34397 c-6 -6 -7 -16 -1 -27 6 -12 5 -17 -6 -17 -7 0 -14 6
-14 14 0 9 -5 8 -19 -4 -11 -9 -18 -20 -15 -24 2 -4 -10 -12 -27 -18 -17 -6
-33 -19 -36 -30 -3 -11 -10 -18 -16 -15 -7 2 -43 -25 -80 -60 -37 -35 -74 -67
-82 -70 -8 -3 -12 -12 -9 -21 4 -10 0 -15 -13 -15 -24 0 -63 -40 -63 -63 0 -9
-5 -17 -11 -17 -6 0 -7 6 -2 13 4 6 -12 -3 -35 -21 -44 -35 -52 -56 -27 -66 9
-3 15 0 15 9 0 8 6 15 14 15 7 0 19 7 26 15 7 8 17 12 23 8 6 -3 7 -1 3 6 -4
6 0 14 8 17 10 4 16 19 17 38 1 29 1 29 8 6 6 -22 8 -23 14 -7 4 11 12 15 18
11 7 -4 9 -3 6 3 -4 6 3 19 14 29 12 11 25 29 30 42 5 12 15 22 24 22 8 0 15
4 15 9 0 5 9 7 20 4 14 -4 20 0 20 12 0 12 -5 15 -17 10 -11 -4 -7 5 11 24 17
17 39 31 50 31 24 1 66 33 66 50 0 9 4 9 16 0 12 -11 15 -11 12 0 -2 8 11 19
32 26 26 9 34 17 32 31 -2 12 6 23 20 30 23 10 23 10 -4 10 -14 0 -31 -4 -37
-10z"/>
<path d="M19885 34369 c-4 -6 -5 -12 -2 -15 2 -3 7 2 10 11 7 17 1 20 -8 4z"/>
<path d="M19675 34230 c-3 -5 1 -10 9 -10 9 0 16 5 16 10 0 6 -4 10 -9 10 -6
0 -13 -4 -16 -10z"/>
<path d="M19598 34143 c7 -3 16 -2 19 1 4 3 -2 6 -13 5 -11 0 -14 -3 -6 -6z"/>
<path d="M23640 34090 c-8 -5 -12 -11 -9 -14 2 -3 11 -1 19 4 8 5 12 11 9 14
-2 3 -11 1 -19 -4z"/>
<path d="M22910 34033 c-67 -11 -286 -67 -370 -94 -206 -68 -565 -230 -745
-337 -353 -210 -643 -417 -925 -660 -126 -109 -409 -392 -517 -516 -106 -124
-245 -304 -320 -416 -67 -101 -176 -291 -170 -297 3 -2 10 5 17 16 6 12 16 21
23 21 13 0 77 83 77 100 0 5 7 7 15 4 11 -4 13 -2 9 9 -3 8 3 21 14 28 11 8
20 16 20 19 3 20 20 51 46 85 18 22 40 52 49 68 29 45 37 30 10 -18 -13 -25
-28 -45 -33 -45 -9 0 -35 -59 -28 -66 3 -2 18 12 34 32 16 20 40 48 54 63 15
14 40 47 57 72 18 25 55 68 84 95 28 27 65 64 83 82 17 17 37 32 44 32 7 0 33
21 57 46 25 25 45 43 45 39 0 -3 43 37 95 89 52 53 97 96 99 96 4 0 71 58 116
100 20 19 58 53 85 75 104 86 121 101 138 123 10 12 24 22 31 22 7 0 22 10 33
23 12 12 45 38 73 57 45 31 90 64 153 116 9 8 21 14 25 14 4 1 39 23 77 50
126 89 295 200 305 200 6 0 10 4 10 8 0 5 17 17 37 28 20 10 44 26 53 34 9 8
32 24 51 35 72 42 185 106 217 122 17 9 32 20 32 25 0 4 7 8 15 8 8 0 15 7 15
16 0 10 6 14 14 11 8 -3 16 -1 18 4 2 6 10 11 18 12 24 4 61 33 52 42 -4 4 1
5 11 2 9 -4 17 -2 17 3 0 6 7 10 15 10 8 0 15 4 15 10 0 5 11 12 25 16 14 3
25 10 25 14 0 5 13 11 29 15 16 3 35 13 42 21 6 8 17 14 24 14 13 0 65 21 165
67 30 14 69 40 87 58 32 33 46 37 72 21 9 -6 12 -5 7 2 -4 6 1 10 12 9 21 -1
142 53 142 65 0 8 -34 9 -80 1z"/>
<path d="M19840 29337 c0 -3 12 -12 26 -22 15 -9 23 -12 20 -6 -7 11 -46 35
-46 28z"/>
<path d="M15656 28183 c-6 -15 -8 -15 -16 -3 -8 13 -10 13 -10 -1 0 -25 -26
-44 -34 -24 -11 31 -53 16 -47 -18 1 -4 -8 -3 -20 4 -19 10 -21 9 -16 -5 4 -9
2 -16 -3 -16 -6 0 -10 5 -10 11 0 8 -12 10 -34 6 -29 -5 -34 -3 -30 11 5 15 4
15 -6 -1 -11 -16 -45 -18 -69 -2 -5 3 -15 -3 -21 -12 -11 -17 -11 -17 -6 0 6
18 -9 24 -19 8 -3 -5 -16 -8 -30 -5 -17 3 -23 0 -19 -9 3 -8 -3 -13 -16 -13
-11 0 -20 3 -20 6 0 12 -47 3 -70 -13 -28 -20 -44 -22 -34 -5 5 7 3 8 -6 3 -7
-5 -32 -9 -54 -11 -23 -1 -54 -5 -69 -8 -19 -4 -26 -3 -22 4 3 5 1 10 -4 10
-6 0 -11 -4 -11 -9 0 -6 -9 -8 -20 -6 -11 2 -19 -1 -17 -8 1 -7 -4 -11 -10 -9
-7 1 -13 -3 -13 -9 0 -8 -5 -8 -15 1 -12 10 -15 10 -15 -1 0 -10 -3 -10 -8 -3
-7 12 -44 4 -43 -9 1 -4 -1 -6 -3 -4 -2 1 -14 -7 -27 -18 -13 -12 -19 -14 -14
-5 8 13 6 13 -8 2 -9 -8 -20 -11 -25 -8 -5 3 -19 -4 -30 -15 -12 -11 -22 -17
-22 -13 0 3 -7 1 -15 -6 -8 -7 -15 -9 -15 -5 0 4 -8 1 -17 -6 -11 -10 -14 -10
-9 -2 5 10 1 11 -21 2 -15 -5 -33 -15 -40 -20 -7 -6 -16 -8 -21 -5 -5 3 -18
-1 -28 -9 -10 -8 -26 -15 -35 -15 -27 0 -72 -27 -57 -33 8 -4 7 -6 -5 -6 -24
-1 -127 -48 -149 -68 -10 -9 -18 -13 -18 -9 0 4 -12 -2 -26 -13 -15 -12 -33
-21 -41 -21 -7 0 -16 -6 -19 -14 -3 -8 -19 -18 -35 -21 -16 -4 -29 -10 -29
-15 0 -7 -26 -26 -105 -74 -16 -10 -32 -22 -33 -27 -2 -5 -8 -7 -13 -3 -5 3
-9 0 -9 -6 0 -6 -4 -8 -10 -5 -5 3 -10 -1 -10 -9 0 -8 -9 -18 -20 -21 -11 -3
-20 -11 -20 -16 0 -5 -7 -9 -15 -9 -8 0 -15 -3 -15 -7 0 -5 -12 -21 -26 -38
-14 -16 -23 -23 -19 -15 4 8 -1 6 -9 -4 -9 -11 -16 -24 -16 -29 0 -4 -4 -5
-10 -2 -11 7 -84 -25 -76 -33 3 -3 12 1 20 7 10 8 16 9 21 1 4 -6 3 -9 -2 -8
-19 5 -52 -23 -46 -39 4 -10 2 -14 -5 -10 -6 4 -12 2 -15 -5 -2 -7 -2 -2 0 12
4 24 4 24 -11 5 -8 -11 -16 -26 -16 -34 0 -8 -3 -11 -6 -8 -9 9 -54 -44 -48
-55 3 -4 -2 -8 -10 -8 -10 0 -13 -7 -10 -25 2 -14 0 -25 -6 -25 -5 0 -10 5
-10 11 0 8 -5 8 -15 -1 -8 -7 -12 -16 -9 -21 3 -5 2 -9 -3 -8 -20 3 -27 -2
-13 -11 12 -7 11 -10 -5 -16 -11 -4 -28 -17 -38 -28 -45 -51 -57 -66 -57 -71
0 -2 -16 -21 -35 -42 -19 -21 -33 -44 -30 -50 2 -7 0 -12 -5 -10 -13 3 -160
-195 -153 -208 4 -5 3 -7 -2 -3 -10 9 -4 17 -167 -222 -104 -151 -191 -284
-348 -530 -5 -8 -45 -72 -87 -141 -43 -70 -91 -149 -108 -175 -16 -27 -39 -65
-50 -84 -11 -19 -41 -69 -66 -110 -26 -41 -106 -176 -179 -300 -73 -124 -150
-253 -171 -287 -22 -34 -39 -64 -39 -66 0 -2 -45 -79 -100 -170 -54 -92 -104
-176 -110 -188 -9 -16 15 -6 102 41 170 92 612 309 788 385 85 37 180 78 210
92 71 32 568 232 730 293 69 26 271 102 450 169 179 68 359 135 400 151 41 16
118 45 170 64 l95 36 79 208 c322 850 625 1634 799 2066 42 104 75 191 73 193
-2 2 -7 -4 -10 -14z m-35 -80 c-12 -20 -14 -14 -5 12 4 9 9 14 11 11 3 -2 0
-13 -6 -23z m-1011 -153 c0 -5 -5 -10 -11 -10 -5 0 -7 5 -4 10 3 6 8 10 11 10
2 0 4 -4 4 -10z"/>
<path d="M16700 25583 c-19 -6 -43 -12 -52 -12 -10 -1 -18 -6 -18 -13 0 -6 -3
-8 -7 -5 -3 4 -11 3 -17 -2 -6 -5 -27 -11 -46 -14 -19 -3 -75 -22 -125 -43
-49 -20 -95 -37 -102 -38 -7 -1 -16 -5 -19 -9 -4 -4 -13 -7 -20 -7 -8 0 -39
-12 -71 -27 -32 -15 -60 -28 -63 -28 -3 -1 -18 -7 -35 -14 -16 -7 -57 -22 -90
-32 -33 -11 -87 -30 -120 -44 -33 -13 -89 -35 -125 -49 -36 -14 -96 -39 -134
-55 -37 -17 -72 -31 -77 -31 -12 0 -118 -41 -334 -128 -88 -35 -191 -75 -230
-89 -38 -14 -88 -33 -110 -43 -58 -26 -197 -81 -215 -85 -27 -6 -103 -35 -114
-44 -6 -5 -29 -14 -51 -21 -22 -7 -53 -20 -70 -29 -16 -9 -70 -32 -120 -50
-49 -18 -99 -37 -110 -41 -11 -4 -49 -20 -84 -36 -35 -16 -67 -29 -70 -30 -6
0 -34 -12 -121 -51 -30 -14 -68 -30 -85 -38 -16 -7 -64 -29 -105 -49 -42 -20
-79 -36 -83 -36 -4 0 -29 -9 -55 -21 -26 -12 -60 -27 -77 -34 -97 -41 -579
-278 -583 -287 -2 -4 -33 -22 -70 -40 -37 -18 -70 -37 -74 -43 -4 -5 -11 -10
-15 -11 -26 -3 -117 -57 -308 -183 -72 -47 -140 -91 -150 -98 -11 -7 -47 -29
-80 -50 -33 -20 -61 -41 -63 -45 -2 -4 -8 -8 -14 -8 -5 0 -22 -9 -36 -20 -15
-11 -37 -28 -50 -38 -13 -9 -31 -24 -41 -32 -10 -8 -25 -19 -34 -25 -69 -42
-319 -216 -350 -242 -20 -18 -41 -33 -46 -33 -5 0 -16 -6 -23 -13 -24 -23
-118 -87 -128 -87 -6 0 -10 -4 -10 -10 0 -5 -7 -10 -15 -10 -8 0 -15 -3 -15
-8 0 -4 -13 -13 -29 -20 -16 -7 -46 -25 -65 -40 -20 -15 -58 -44 -85 -64 -27
-21 -54 -38 -60 -38 -6 0 -11 -4 -11 -10 0 -5 -7 -10 -15 -10 -8 0 -15 -4 -15
-8 0 -5 -15 -16 -32 -25 -18 -9 -58 -31 -88 -50 -30 -18 -70 -41 -89 -52 -18
-11 -47 -32 -64 -47 -30 -26 -41 -32 -59 -29 -5 0 -8 -2 -8 -7 0 -4 -17 -16
-37 -27 -21 -11 -40 -22 -43 -25 -8 -9 -152 -70 -164 -70 -7 0 -27 -11 -46
-25 -19 -14 -40 -23 -47 -21 -7 3 -13 2 -13 -2 0 -7 -10 -10 -65 -15 -14 -1
-25 -5 -25 -8 0 -3 -7 -6 -15 -6 -8 0 -15 5 -15 10 0 5 -7 4 -15 -3 -8 -7 -22
-10 -30 -6 -8 3 -15 1 -15 -4 0 -6 -4 -10 -10 -10 -5 0 -9 6 -7 13 1 6 -4 11
-10 10 -7 -2 -13 2 -13 8 0 8 -4 8 -13 1 -10 -8 -16 -6 -25 9 -11 18 -16 19
-29 7 -12 -9 -15 -10 -9 0 4 7 2 12 -4 12 -6 0 -9 4 -6 9 4 5 0 11 -6 14 -10
3 -9 8 2 22 8 11 10 16 3 11 -7 -4 -20 -3 -29 2 -11 6 -13 11 -5 16 16 10 14
26 -3 26 -8 0 -21 14 -30 30 -8 17 -11 30 -6 30 4 0 6 9 3 20 -3 11 -10 20
-15 20 -5 0 -6 -6 -3 -12 4 -7 0 -5 -9 6 -12 14 -12 22 -3 37 8 13 13 15 19 6
4 -7 8 -7 9 -2 0 6 2 19 4 30 3 17 -1 15 -21 -9 -20 -23 -28 -26 -37 -16 -9
10 -9 11 1 6 14 -8 17 10 2 19 -5 3 -10 12 -10 18 0 8 3 8 9 -1 7 -11 9 -11
14 1 3 9 -1 17 -11 19 -19 5 -75 -25 -65 -35 3 -4 2 -7 -4 -7 -6 0 -14 7 -17
16 -3 8 -2 13 3 10 4 -3 16 3 25 13 17 19 17 19 -6 17 -36 -4 -68 -29 -68 -52
0 -23 -17 -34 -51 -34 -20 0 -26 -24 -9 -35 6 -4 8 -10 5 -15 -3 -4 2 -10 10
-14 8 -3 15 -11 15 -18 0 -9 -3 -9 -10 2 -9 13 -11 13 -21 0 -9 -12 -10 -12
-5 4 5 13 2 17 -8 13 -8 -3 -17 1 -20 9 -3 8 -1 14 4 14 6 0 10 8 10 17 0 14
-3 13 -16 -5 -9 -13 -13 -29 -10 -37 3 -8 2 -14 -2 -13 -16 5 -52 -28 -51 -47
0 -11 3 -14 6 -7 8 20 22 14 16 -7 -7 -26 -33 -36 -33 -13 0 14 -2 14 -9 3 -6
-8 -6 -24 0 -38 5 -14 5 -23 -1 -23 -6 0 -10 7 -10 15 0 8 -4 15 -10 15 -5 0
-10 -4 -10 -10 0 -5 -7 -10 -15 -10 -8 0 -15 -5 -15 -11 0 -6 6 -9 14 -6 10 4
12 0 8 -15 -4 -15 -7 -17 -13 -6 -7 10 -9 10 -9 -2 0 -8 -14 -22 -32 -29 -18
-8 -27 -16 -20 -19 21 -7 13 -27 -17 -40 -29 -13 -46 -48 -53 -113 -1 -9 -8
-15 -15 -12 -8 3 -13 -3 -13 -16 0 -12 -4 -21 -9 -21 -5 0 -7 10 -4 23 3 13
-3 8 -13 -13 -10 -19 -21 -37 -25 -40 -3 -3 -9 -15 -13 -28 -4 -12 -11 -20
-16 -17 -4 3 -11 -6 -14 -19 -3 -14 -19 -38 -36 -54 -16 -16 -26 -32 -23 -36
4 -3 1 -6 -5 -6 -7 0 -12 -9 -12 -20 0 -11 -7 -20 -15 -20 -8 0 -12 -6 -9 -14
3 -7 -2 -16 -10 -19 -9 -4 -16 -16 -16 -27 0 -11 -7 -20 -15 -20 -8 0 -15 -8
-15 -19 0 -10 -7 -24 -15 -31 -8 -7 -15 -19 -15 -26 0 -8 -7 -14 -15 -14 -8 0
-15 -7 -15 -15 0 -8 -6 -15 -12 -15 -9 0 -8 -4 2 -10 13 -8 9 -13 -10 -12 -3
0 -10 -10 -17 -24 -7 -16 -7 -22 -1 -17 7 3 8 1 4 -5 -4 -7 -14 -12 -22 -12
-8 0 -14 -10 -14 -26 0 -14 -4 -23 -9 -20 -5 3 -12 -5 -15 -19 -4 -14 -11 -25
-16 -25 -6 0 -10 -7 -10 -15 0 -8 -9 -19 -20 -25 -11 -6 -20 -20 -20 -31 0
-11 -7 -22 -16 -26 -8 -3 -13 -12 -10 -19 3 -7 -1 -20 -9 -28 -8 -8 -15 -21
-15 -29 0 -8 -11 -22 -25 -31 -14 -9 -25 -24 -25 -34 0 -10 -4 -22 -9 -27 -5
-6 -22 -32 -37 -60 -15 -27 -30 -52 -33 -55 -3 -3 -15 -22 -26 -43 -11 -21
-28 -47 -37 -57 -10 -11 -18 -25 -18 -33 0 -8 -11 -26 -25 -41 -14 -15 -24
-30 -23 -34 3 -14 -14 -42 -23 -36 -5 3 -9 -4 -9 -15 0 -11 -4 -23 -10 -26 -5
-3 -10 -14 -10 -25 0 -10 -7 -20 -15 -23 -8 -4 -21 -21 -29 -39 -19 -42 -46
-87 -68 -112 -10 -11 -18 -28 -18 -38 0 -10 -7 -21 -15 -24 -8 -4 -15 -12 -15
-19 0 -7 -6 -18 -14 -25 -8 -6 -12 -18 -9 -26 3 -8 -8 -28 -26 -46 -17 -17
-31 -40 -31 -49 0 -10 -6 -19 -12 -21 -7 -3 -13 -16 -13 -29 -1 -13 -6 -23
-13 -21 -7 1 -12 -4 -12 -12 0 -7 -7 -19 -15 -26 -8 -7 -15 -19 -15 -28 0 -8
-11 -30 -26 -49 -14 -18 -22 -37 -19 -43 3 -5 -4 -14 -15 -20 -11 -6 -23 -22
-26 -35 -3 -14 -10 -25 -16 -25 -5 0 -7 -4 -4 -8 2 -4 -11 -28 -30 -51 -19
-24 -34 -49 -34 -56 0 -7 -7 -18 -15 -25 -8 -7 -15 -20 -15 -30 0 -10 -6 -23
-14 -29 -19 -16 -56 -87 -56 -108 0 -9 -3 -14 -6 -10 -6 5 -32 -37 -74 -121
-9 -18 -20 -29 -25 -25 -4 4 -5 0 -2 -9 3 -9 -1 -22 -9 -28 -8 -7 -14 -19 -14
-27 0 -8 -5 -11 -11 -7 -7 4 -9 0 -5 -14 5 -15 1 -25 -13 -34 -12 -7 -21 -18
-21 -25 0 -7 -5 -13 -11 -13 -5 0 -8 -4 -5 -9 3 -4 -5 -21 -19 -37 -13 -15
-22 -31 -19 -35 2 -4 -4 -15 -13 -25 -18 -18 -20 -21 -22 -51 0 -9 -4 -13 -7
-10 -8 8 -74 -99 -80 -128 -2 -11 -10 -25 -18 -31 -8 -5 -18 -22 -21 -37 -4
-15 -11 -27 -17 -27 -5 0 -6 -4 -3 -10 3 -5 1 -10 -4 -10 -6 0 -11 -9 -11 -21
0 -11 -3 -18 -8 -15 -4 2 -16 -16 -26 -40 -10 -24 -21 -42 -25 -39 -4 2 -15
-13 -24 -33 -9 -20 -21 -48 -27 -62 -17 -40 -40 -76 -40 -65 0 6 -8 -6 -16
-25 -20 -44 -37 -74 -141 -245 -7 -11 -20 -36 -29 -55 -9 -19 -20 -37 -24 -40
-4 -3 -24 -39 -46 -80 -21 -41 -44 -81 -51 -88 -6 -6 -15 -22 -19 -35 -3 -12
-13 -30 -22 -39 -8 -10 -11 -18 -6 -18 5 0 4 -4 -2 -8 -11 -8 -74 -108 -74
-119 0 -3 -6 -14 -14 -22 -7 -9 -31 -50 -52 -91 -21 -41 -41 -77 -44 -80 -7
-7 -29 -45 -68 -120 -19 -36 -47 -83 -61 -105 -30 -44 -61 -107 -61 -123 0 -6
-4 -12 -8 -14 -8 -3 -57 -80 -100 -158 -56 -101 -153 -270 -196 -343 -25 -42
-45 -78 -44 -80 1 -1 -16 -33 -39 -72 -22 -38 -48 -83 -57 -100 -9 -16 -25
-43 -35 -60 -32 -53 -173 -297 -219 -380 -24 -44 -54 -98 -67 -120 -137 -244
-132 -229 -109 -300 45 -135 269 -524 363 -628 71 -79 24 -65 661 -198 407
-86 435 -91 464 -79 44 16 121 101 356 389 69 85 150 184 180 221 102 124 249
304 350 430 660 817 1455 1779 1591 1925 61 65 169 192 484 570 633 757 716
856 889 1054 568 649 905 946 1271 1122 334 161 636 218 1270 239 171 5 435
10 587 10 271 0 277 0 283 -21 4 -11 4 -23 1 -26 -3 -4 -6 2 -6 13 -1 15 -2
16 -9 4 -5 -8 -12 -25 -15 -37 -6 -18 -3 -21 17 -19 13 2 30 6 38 10 8 4 3 -2
-10 -13 -13 -12 -18 -21 -13 -21 6 0 14 5 17 10 4 6 11 8 16 5 5 -4 9 -1 9 5
0 6 5 8 12 4 7 -5 8 -3 3 5 -4 7 2 22 16 37 26 28 79 33 99 9 9 -10 9 -15 1
-15 -6 0 -11 4 -11 9 0 5 -11 9 -25 9 -14 0 -25 -5 -25 -10 0 -5 5 -6 10 -3 6
3 10 0 10 -7 0 -10 2 -10 9 1 6 10 10 10 13 1 3 -9 13 -9 45 -1 23 6 43 16 45
21 2 5 19 11 39 13 20 2 40 6 45 10 5 3 34 7 64 8 30 2 77 13 105 24 153 65
295 136 295 146 0 4 10 9 23 12 12 4 41 23 64 44 23 21 60 51 82 66 23 16 39
32 36 37 -3 5 4 11 15 15 27 9 70 49 70 66 0 8 5 21 11 29 9 13 10 12 5 -2 -3
-12 -1 -15 10 -11 13 5 18 17 15 35 0 4 6 5 14 2 10 -4 15 0 15 12 0 11 5 26
10 34 9 13 11 13 21 0 8 -12 9 -10 4 9 -6 20 -4 23 9 18 10 -4 14 -3 11 2 -3
5 4 12 15 16 16 5 18 10 10 26 -8 14 -8 19 2 17 6 -2 13 2 13 7 3 22 22 56 30
56 6 0 9 7 7 16 -2 9 1 12 7 8 6 -3 18 1 27 9 12 12 12 16 2 16 -7 1 0 11 16
24 19 16 24 26 16 31 -8 5 -5 12 12 24 18 12 23 24 21 54 -1 30 2 36 12 27 10
-8 15 -4 22 17 6 15 9 38 7 50 -3 20 19 38 35 28 5 -2 13 8 20 23 11 25 10 26
-4 8 -15 -19 -15 -19 -15 1 0 11 8 24 18 28 16 7 15 8 -3 15 -19 8 -18 9 4 9
17 1 22 5 17 17 -4 11 1 18 14 21 16 4 18 8 9 19 -6 8 -16 11 -23 7 -6 -4 -5
1 3 11 8 9 23 15 32 13 10 -3 26 4 36 15 11 13 13 18 4 16 -16 -4 -22 46 -8
65 6 8 7 6 3 -5 -3 -10 -1 -20 5 -23 5 -4 7 -11 4 -16 -8 -12 6 -11 25 1 13 8
12 10 -2 10 -10 0 -18 5 -18 10 0 6 6 10 14 10 7 0 20 8 27 17 12 15 12 16 -4
10 -11 -4 -16 -3 -12 3 3 6 10 10 15 10 22 0 49 35 44 56 -4 14 0 25 10 31 9
5 20 23 25 41 9 31 9 31 -13 17 -20 -14 -23 -13 -23 1 0 9 10 20 22 24 12 5
25 16 28 24 6 14 3 14 -21 -1 -22 -15 -25 -15 -15 -2 7 9 9 20 5 24 -4 5 -2 5
4 2 13 -8 31 29 28 61 -1 12 3 22 9 22 6 0 7 -16 3 -39 -3 -22 -2 -42 3 -46 6
-3 8 4 6 15 -2 11 0 20 4 20 5 0 7 16 4 35 -4 28 -1 35 12 35 15 0 16 2 4 17
-12 15 -12 16 3 10 23 -8 33 10 16 31 -12 15 -11 16 4 3 15 -11 18 -11 22 0
11 35 -5 68 -17 37 -3 -7 -4 -3 -4 9 1 12 5 19 11 16 5 -4 7 1 3 10 -4 12 -1
17 11 17 14 0 14 2 3 9 -12 8 -12 13 3 35 9 14 22 26 28 26 6 0 4 8 -6 19 -16
18 -16 18 6 17 17 -1 24 5 26 24 4 25 3 25 -13 5 -16 -20 -16 -20 -5 2 5 12
17 26 26 31 14 8 14 11 1 24 -13 13 -12 16 7 28 11 8 25 13 30 12 4 -2 5 14 2
35 -5 28 -4 34 4 23 7 -11 9 -6 6 20 -5 44 4 91 15 84 12 -7 11 3 -2 28 -6 11
-7 18 -1 14 5 -3 12 5 14 19 3 14 1 22 -4 18 -6 -3 -3 5 6 19 14 22 23 53 25
86 1 7 5 11 9 8 5 -3 8 13 8 34 -1 22 3 40 8 40 5 0 2 8 -5 17 -10 11 -10 14
-1 9 13 -8 16 2 13 47 0 15 3 27 8 27 5 0 8 12 5 26 -3 14 -1 23 4 20 4 -2 9
5 10 17 3 36 8 62 14 72 7 13 26 131 33 210 2 22 6 51 10 65 3 14 7 32 9 40
11 68 17 111 20 145 3 36 21 150 72 460 9 55 18 113 20 130 2 16 11 62 19 102
34 163 7 319 -102 598 -22 55 -46 111 -54 125 -13 24 -16 25 -49 13z m-6740
-2847 c0 -8 -7 -19 -15 -26 -13 -11 -14 -10 -8 5 5 15 3 17 -13 11 -18 -7 -18
-6 1 12 21 21 35 20 35 -2z m71 -39 c-10 -9 -11 -8 -5 6 3 10 9 15 12 12 3 -3
0 -11 -7 -18z m-117 -16 c3 -4 -6 -6 -19 -3 -14 2 -25 6 -25 8 0 8 39 4 44 -5z
m-107 -47 c-3 -3 -12 -4 -19 -1 -8 3 -5 6 6 6 11 1 17 -2 13 -5z m6543 -194
c-20 -13 -30 -12 -30 1 0 5 4 8 9 4 5 -3 13 0 16 6 4 5 10 8 13 4 4 -3 0 -10
-8 -15z m-20 -70 c0 -5 -2 -10 -4 -10 -3 0 -8 5 -11 10 -3 6 -1 10 4 10 6 0
11 -4 11 -10z m-110 -140 c12 -7 10 -9 -8 -7 -12 0 -22 5 -22 9 0 11 12 10 30
-2z m-1480 -1195 c-7 -8 -18 -15 -24 -14 -7 0 -6 2 2 6 6 2 10 9 6 14 -3 5 2
9 12 9 13 0 14 -3 4 -15z"/>
<path d="M18630 24976 c0 -2 8 -10 18 -17 15 -13 16 -12 3 4 -13 16 -21 21
-21 13z"/>
<path d="M18670 24936 c0 -2 8 -10 18 -17 15 -13 16 -12 3 4 -13 16 -21 21
-21 13z"/>
<path d="M18749 24850 c23 -30 107 -122 185 -205 79 -82 177 -186 218 -230 76
-81 308 -309 543 -535 120 -115 257 -240 438 -398 40 -34 115 -100 167 -146
52 -47 156 -135 230 -196 74 -62 146 -122 160 -134 58 -50 354 -289 422 -339
40 -31 114 -86 163 -124 123 -94 277 -210 355 -266 36 -26 81 -60 100 -75 19
-15 71 -51 115 -80 44 -30 89 -62 100 -72 20 -17 287 -199 518 -353 65 -43
182 -117 260 -164 78 -47 185 -114 237 -148 97 -63 312 -189 475 -278 50 -27
110 -62 135 -77 48 -29 371 -197 555 -288 193 -96 444 -212 645 -297 177 -75
250 -105 520 -210 249 -97 711 -238 952 -291 40 -9 91 -20 113 -25 53 -12 138
-27 200 -35 28 -3 53 -8 58 -11 4 -2 110 -15 235 -28 241 -26 411 -31 520 -16
37 6 105 15 152 21 72 10 190 37 190 43 0 1 -102 3 -227 4 -483 3 -996 103
-1658 322 -219 72 -585 208 -715 265 -41 19 -131 57 -200 86 -69 29 -231 102
-360 162 -1900 887 -4036 2401 -5711 4048 -123 121 -137 132 -90 70z"/>
<path d="M10087 23025 c3 -8 9 -12 14 -9 12 7 11 11 -5 17 -10 4 -13 1 -9 -8z"/>
<path d="M10051 22994 c0 -11 3 -14 6 -6 3 7 2 16 -1 19 -3 4 -6 -2 -5 -13z"/>
<path d="M10012 22948 c-15 -15 -16 -28 -2 -28 6 0 10 6 10 14 0 8 6 17 13 19
6 3 7 6 2 6 -6 1 -16 -4 -23 -11z"/>
<path d="M9985 22901 c-3 -5 -1 -12 5 -16 5 -3 10 1 10 9 0 18 -6 21 -15 7z"/>
<path d="M9972 22861 c2 -7 7 -12 11 -12 12 1 9 15 -3 20 -7 2 -11 -2 -8 -8z"/>
<path d="M9930 22849 c0 -7 -8 -18 -17 -25 -10 -7 -14 -16 -10 -20 4 -4 14 2
23 14 8 12 19 20 23 18 4 -3 8 1 8 9 0 8 -6 15 -14 15 -7 0 -13 -5 -13 -11z"/>
<path d="M9876 22782 c-3 -6 -1 -14 5 -17 15 -10 25 3 12 16 -7 7 -13 7 -17 1z"/>
<path d="M9855 22750 c-3 -5 -1 -10 4 -10 6 0 11 5 11 10 0 6 -2 10 -4 10 -3
0 -8 -4 -11 -10z"/>
<path d="M16355 22399 c-4 -6 -5 -12 -2 -15 2 -3 7 2 10 11 7 17 1 20 -8 4z"/>
<path d="M16106 22005 c-3 -8 -1 -15 4 -15 6 0 10 7 10 15 0 8 -2 15 -4 15 -2
0 -6 -7 -10 -15z"/>
<path d="M14015 19891 c-196 -42 -340 -116 -461 -236 -49 -49 -124 -141 -124
-154 0 -6 -3 -11 -8 -11 -6 0 -57 -65 -139 -177 -21 -29 -28 -32 -100 -38
-236 -21 -456 -97 -603 -211 -79 -61 -250 -245 -250 -269 0 -4 -6 -13 -14 -19
-7 -6 -67 -83 -133 -171 -65 -88 -195 -261 -288 -385 -352 -469 -394 -527
-439 -606 -93 -163 -133 -336 -123 -535 3 -63 8 -123 11 -134 2 -11 5 -26 5
-34 1 -7 7 -11 16 -8 8 4 17 2 20 -3 4 -6 16 -10 28 -10 12 0 28 -9 35 -20 7
-12 17 -18 22 -15 6 3 10 2 10 -4 0 -5 14 -18 30 -28 17 -9 30 -21 30 -26 0
-5 12 -21 28 -37 58 -60 102 -126 102 -156 0 -8 4 -12 10 -9 5 3 12 -6 16 -20
3 -14 10 -25 15 -25 5 0 9 -9 9 -20 0 -11 5 -20 10 -20 6 0 10 -7 10 -15 0 -8
4 -15 10 -15 5 0 9 -3 8 -7 -2 -11 12 -45 26 -62 6 -7 11 -19 11 -25 1 -6 13
-37 28 -69 15 -32 27 -64 27 -72 0 -7 4 -16 9 -20 5 -3 12 -19 16 -35 4 -17
11 -30 16 -30 6 0 8 -4 5 -8 -2 -4 11 -36 29 -71 19 -35 32 -68 29 -72 -3 -5
0 -9 5 -9 6 0 11 -4 11 -10 0 -5 15 -41 34 -80 19 -38 32 -70 30 -70 -2 0 17
-35 44 -77 26 -43 63 -109 82 -148 18 -38 38 -73 44 -77 6 -4 7 -8 2 -8 -5 0
-4 -6 2 -12 5 -7 25 -40 43 -73 18 -33 54 -92 81 -132 26 -40 48 -77 48 -83 0
-5 3 -10 8 -10 4 0 16 -15 25 -33 10 -19 29 -46 43 -60 14 -15 23 -27 20 -27
-5 0 75 -111 106 -149 7 -8 29 -38 50 -65 50 -69 84 -110 142 -176 27 -30 67
-75 88 -100 379 -433 891 -879 1443 -1256 161 -110 266 -181 297 -199 9 -5 40
-25 70 -43 29 -18 62 -38 73 -45 11 -7 39 -24 62 -39 23 -16 44 -28 48 -28 3
0 24 -12 48 -27 106 -67 286 -164 541 -291 207 -103 260 -126 526 -232 344
-137 765 -253 1050 -290 41 -5 84 -11 95 -14 11 -2 94 -10 185 -17 147 -11
179 -10 285 5 209 29 377 89 505 179 36 25 106 88 156 139 97 99 885 1096 993
1257 120 178 163 324 163 551 0 90 -7 175 -16 225 -9 44 -16 87 -16 96 0 9 46
74 101 145 187 237 238 330 274 489 14 65 16 108 12 225 -8 210 0 197 -143
248 -355 127 -634 246 -974 415 -302 151 -611 320 -618 338 -2 5 -9 9 -16 9
-7 0 -50 23 -95 50 -45 28 -84 50 -86 50 -6 0 -295 181 -350 220 -16 11 -48
32 -70 47 -942 619 -1802 1355 -2499 2141 -60 67 -111 122 -113 122 -6 0 27
-60 74 -134 106 -166 171 -261 255 -372 45 -60 50 -80 10 -38 -131 135 -345
441 -438 625 -24 47 -76 128 -117 180 -125 160 -276 367 -344 470 -63 96 -65
99 -101 98 -20 -1 -73 -9 -117 -18z m-519 -1170 c137 -382 319 -696 689 -1190
133 -178 128 -171 122 -171 -18 0 -216 222 -343 385 -216 274 -385 579 -479
860 -45 136 -85 326 -84 399 0 47 3 41 34 -78 18 -71 46 -163 61 -205z m328
-41 c61 -155 146 -338 196 -420 5 -8 46 -80 92 -160 85 -150 238 -385 342
-525 102 -138 114 -156 61 -101 -129 137 -335 419 -465 636 -144 240 -263 541
-285 720 -4 37 0 30 20 -35 14 -44 32 -96 39 -115z m-1419 -750 c135 -405 376
-821 799 -1380 172 -227 133 -211 -73 30 -58 69 -125 150 -148 180 -23 30 -50
64 -60 75 -22 24 -226 313 -236 335 -4 8 -21 38 -38 65 -43 70 -173 338 -199
410 -87 238 -141 461 -139 575 1 52 2 49 33 -75 18 -71 45 -168 61 -215z m369
-46 c113 -330 410 -855 731 -1294 105 -144 113 -156 97 -146 -22 13 -219 251
-304 366 -308 419 -511 829 -579 1170 -26 129 -23 163 5 64 13 -45 36 -117 50
-160z"/>
<path d="M24465 19466 c-82 -12 -164 -37 -191 -57 -6 -5 -20 -7 -32 -4 -15 3
-22 -1 -22 -12 0 -13 -3 -13 -15 -3 -8 7 -13 16 -10 19 2 4 -2 8 -10 8 -8 0
-12 -4 -9 -9 3 -4 -1 -9 -8 -9 -13 -1 -79 -6 -106 -8 -7 -1 -10 -5 -7 -11 4
-6 -8 -10 -29 -10 -19 0 -38 -4 -41 -10 -3 -5 -13 -10 -21 -10 -8 0 -12 4 -9
10 10 16 -28 -2 -46 -22 -10 -11 -30 -18 -53 -18 -20 0 -36 -5 -36 -11 0 -5
-4 -7 -10 -4 -5 3 -10 1 -10 -4 0 -6 -3 -10 -7 -9 -5 1 -18 -3 -30 -10 -18
-10 -23 -10 -23 0 0 6 -12 0 -28 -15 -19 -19 -31 -24 -42 -17 -10 6 -22 3 -37
-12 -17 -16 -23 -18 -23 -7 -1 8 -11 2 -25 -15 -13 -17 -21 -34 -19 -38 3 -5
0 -7 -7 -6 -7 2 -13 -2 -14 -9 0 -17 -12 -26 -40 -29 -14 -1 -32 -10 -41 -18
-8 -9 -26 -19 -40 -22 -13 -3 -21 -11 -18 -16 3 -5 -2 -8 -12 -7 -25 4 -63
-21 -57 -38 3 -7 0 -13 -6 -13 -6 0 -11 10 -12 23 0 12 -3 16 -6 9 -2 -6 -9
-10 -14 -7 -5 4 -6 -1 -3 -9 3 -9 1 -16 -6 -16 -6 0 -8 -5 -4 -12 5 -7 3 -8
-5 -4 -7 5 -19 0 -27 -10 -9 -11 -13 -12 -9 -4 4 8 -3 4 -14 -10 -14 -16 -19
-19 -15 -7 5 13 2 16 -10 11 -9 -4 -15 -9 -12 -11 7 -7 -15 -27 -37 -36 -11
-4 -21 -15 -24 -25 -2 -10 -14 -19 -25 -19 -33 -3 -78 -24 -72 -34 3 -5 15 -2
27 6 30 21 41 19 20 -4 -10 -10 -20 -18 -23 -18 -16 1 -40 -17 -40 -29 0 -8
-9 -14 -21 -14 -11 0 -18 -4 -15 -9 3 -4 -6 -7 -20 -5 -20 2 -23 0 -14 -11 9
-10 4 -15 -20 -20 -17 -4 -34 -13 -37 -20 -2 -8 -11 -11 -19 -8 -8 3 -11 10
-7 16 3 6 1 7 -6 3 -6 -4 -9 -11 -6 -16 3 -4 -2 -13 -10 -20 -8 -7 -13 -16
-10 -20 3 -4 -1 -8 -8 -7 -36 1 -57 -4 -52 -13 3 -5 -3 -10 -15 -10 -12 0 -18
-4 -15 -10 3 -5 1 -10 -5 -10 -6 0 -8 -4 -5 -10 3 -5 -3 -10 -14 -10 -11 0
-26 -8 -33 -19 -7 -10 -16 -19 -21 -19 -4 0 -13 -3 -20 -5 -9 -4 -9 -6 1 -6 6
-1 12 -5 12 -11 0 -5 -7 -7 -15 -4 -8 4 -15 1 -15 -6 0 -6 -5 -8 -12 -4 -8 5
-9 2 -4 -11 6 -18 6 -18 -15 1 -12 10 -19 13 -15 6 6 -10 -17 -26 -46 -31 -5
0 -17 -10 -28 -21 -12 -12 -25 -18 -30 -15 -6 4 -7 -1 -3 -11 4 -12 3 -15 -5
-10 -8 5 -10 2 -6 -8 6 -15 -6 -20 -43 -19 -7 1 -13 -6 -13 -14 0 -8 -4 -11
-10 -8 -5 3 -15 -3 -22 -15 -7 -11 -17 -20 -23 -20 -6 0 -16 -9 -22 -19 -10
-15 -10 -21 0 -25 7 -3 1 -4 -13 -3 -18 1 -24 -2 -22 -13 2 -8 0 -12 -4 -7 -4
4 -16 -1 -27 -10 -15 -13 -19 -14 -13 -3 4 9 2 8 -7 -2 -8 -10 -20 -18 -28
-18 -8 0 -6 -6 7 -15 14 -11 15 -14 3 -9 -10 3 -31 -7 -52 -25 -19 -17 -42
-31 -50 -31 -9 0 -19 -5 -22 -11 -4 -6 -13 -8 -21 -5 -8 3 -11 0 -8 -8 3 -8 0
-17 -7 -22 -7 -4 -10 -3 -5 4 3 6 2 13 -3 16 -5 4 -13 -3 -16 -15 -4 -12 -12
-18 -20 -15 -10 3 -12 0 -8 -12 3 -9 3 -14 -2 -10 -4 4 -16 -4 -27 -17 -11
-14 -25 -22 -31 -19 -8 5 -8 2 1 -7 19 -20 15 -38 -8 -32 -15 4 -19 2 -15 -10
5 -11 -3 -16 -29 -21 -26 -5 -36 -12 -36 -25 0 -12 -11 -23 -30 -29 -21 -8
-28 -16 -24 -26 6 -15 -6 -21 -31 -16 -5 1 -7 -1 -3 -5 10 -11 -20 -38 -33
-30 -6 4 -9 0 -7 -11 2 -11 -3 -20 -12 -20 -8 -1 -21 -2 -28 -3 -10 -1 -10 -6
-1 -22 8 -15 8 -19 0 -15 -6 4 -11 3 -11 -3 0 -6 -12 -9 -27 -8 -23 2 -28 -2
-27 -21 0 -15 -4 -21 -13 -18 -8 3 -16 -1 -20 -10 -9 -25 -62 -79 -69 -71 -4
4 -1 7 6 7 7 0 10 3 7 7 -4 3 -3 11 1 18 4 6 -1 2 -10 -8 -10 -11 -18 -25 -18
-33 0 -7 -8 -11 -19 -9 -14 3 -18 -1 -14 -11 3 -8 -1 -14 -8 -14 -11 0 -11 -2
1 -10 13 -8 13 -11 1 -22 -11 -11 -13 -11 -6 0 5 10 2 13 -11 10 -11 -2 -18
-10 -17 -16 2 -7 -2 -12 -8 -12 -11 0 -39 -25 -39 -35 0 -3 6 -3 13 1 9 6 9 4
-1 -8 -8 -10 -24 -15 -43 -13 -16 2 -29 -1 -29 -6 0 -6 6 -7 13 -3 8 6 8 3 -1
-9 -8 -9 -10 -22 -6 -29 4 -7 4 -10 -1 -6 -10 10 -34 -21 -35 -44 0 -10 -6
-18 -14 -18 -7 0 -21 -11 -30 -25 -9 -14 -14 -25 -11 -25 6 0 -7 -17 -40 -53
-11 -12 -18 -28 -17 -35 2 -8 -1 -12 -5 -9 -5 3 -15 -3 -22 -15 -10 -16 -10
-19 1 -12 7 4 2 -5 -11 -19 -14 -15 -20 -27 -15 -27 5 0 4 -4 -3 -8 -6 -4 -13
-14 -15 -22 -2 -8 -9 -21 -16 -28 -7 -8 -10 -18 -7 -23 4 -5 2 -9 -4 -9 -15 0
-55 -79 -58 -115 -1 -16 -9 -61 -17 -100 -34 -158 -32 -190 14 -337 23 -73 46
-149 52 -168 6 -19 17 -48 23 -65 7 -16 31 -86 53 -155 22 -69 84 -258 137
-420 233 -713 296 -1002 297 -1355 1 -539 -181 -970 -784 -1853 -145 -212
-400 -574 -761 -1079 -116 -164 -225 -316 -240 -338 -27 -37 -126 -187 -186
-280 -32 -49 -289 -415 -340 -485 -11 -14 -115 -158 -232 -320 -117 -162 -265
-367 -329 -455 -64 -88 -172 -236 -240 -330 -122 -168 -143 -197 -251 -345
-31 -41 -93 -127 -139 -190 -46 -63 -107 -146 -135 -185 -398 -541 -565 -782
-565 -815 0 -8 12 -38 26 -65 41 -77 484 -835 516 -883 20 -29 48 -52 90 -73
134 -68 621 -165 718 -144 41 9 65 31 610 565 245 239 778 762 1185 1160 1760
1724 2556 2522 3070 3080 570 618 1025 1256 1297 1817 343 710 544 1582 635
2767 10 126 22 234 28 240 80 83 396 433 515 571 811 937 1141 1552 1245 2320
14 99 25 182 25 184 0 11 -60 -32 -381 -271 -285 -213 -1120 -824 -1267 -927
-18 -13 -36 -21 -38 -18 -6 5 27 644 47 925 11 157 6 193 -35 231 -17 16 -26
19 -31 11 -8 -13 -20 -208 -30 -470 -3 -96 -8 -195 -10 -220 -2 -25 -7 -117
-11 -205 -3 -88 -8 -163 -10 -166 -1 -3 -6 -90 -9 -195 -3 -104 -8 -207 -11
-229 -2 -22 -8 -134 -14 -250 -5 -115 -12 -255 -15 -310 -3 -55 -8 -140 -10
-190 -10 -173 -15 -271 -20 -345 -3 -41 -7 -124 -10 -185 -7 -139 -13 -233
-25 -360 -5 -55 -12 -143 -15 -195 -5 -91 -27 -285 -61 -530 -22 -160 -23
-166 -40 -245 -8 -38 -24 -117 -35 -174 -39 -200 -91 -323 -123 -291 -16 16
-16 340 -1 505 21 220 40 489 65 920 6 99 12 207 15 240 7 92 15 237 21 380 3
72 7 162 9 200 2 39 9 174 15 300 5 127 12 259 15 295 2 36 7 130 10 210 7
170 14 295 20 365 2 28 7 120 10 205 3 85 8 173 10 195 4 42 12 189 20 370 3
61 7 130 10 155 3 25 8 77 11 115 8 94 21 162 39 198 9 17 12 34 8 38 -22 21
-295 100 -428 124 -117 21 -478 27 -590 11z m-265 -80 c0 -3 -4 -8 -10 -11 -5
-3 -10 -1 -10 4 0 6 5 11 10 11 6 0 10 -2 10 -4z m-2297 -1401 c-3 -9 -8 -14
-10 -11 -3 3 -2 9 2 15 9 16 15 13 8 -4z"/>
<path d="M21666 17821 c-4 -5 -2 -12 3 -15 5 -4 12 -2 15 3 4 5 2 12 -3 15 -5
4 -12 2 -15 -3z"/>
<path d="M20330 15515 c0 -5 5 -17 10 -25 5 -8 10 -10 10 -5 0 6 -5 17 -10 25
-5 8 -10 11 -10 5z"/>
</g>
</svg>
